<svg version="1.1" xmlns="http://www.w3.org/2000/svg" style="display: block;" viewBox="0 0 2048 1364" width="919" height="612" preserveAspectRatio="none">
<defs>
	<linearGradient id="Gradient1" gradientUnits="userSpaceOnUse" x1="1487.6" y1="873.353" x2="1478.7" y2="879.103">
		<stop class="stop0" offset="0" stop-opacity="1" stop-color="rgb(24,68,59)"/>
		<stop class="stop1" offset="1" stop-opacity="1" stop-color="rgb(20,50,63)"/>
	</linearGradient>
	<linearGradient id="Gradient2" gradientUnits="userSpaceOnUse" x1="1273.89" y1="544.786" x2="1275.88" y2="517.27">
		<stop class="stop0" offset="0" stop-opacity="1" stop-color="rgb(23,95,45)"/>
		<stop class="stop1" offset="1" stop-opacity="1" stop-color="rgb(43,131,57)"/>
	</linearGradient>
	<linearGradient id="Gradient3" gradientUnits="userSpaceOnUse" x1="709.597" y1="942.056" x2="717.703" y2="1007.26">
		<stop class="stop0" offset="0" stop-opacity="1" stop-color="rgb(32,118,48)"/>
		<stop class="stop1" offset="1" stop-opacity="1" stop-color="rgb(63,141,58)"/>
	</linearGradient>
	<linearGradient id="Gradient4" gradientUnits="userSpaceOnUse" x1="1019.17" y1="360.088" x2="1024.28" y2="376.168">
		<stop class="stop0" offset="0" stop-opacity="1" stop-color="rgb(124,108,90)"/>
		<stop class="stop1" offset="1" stop-opacity="1" stop-color="rgb(145,129,105)"/>
	</linearGradient>
	<linearGradient id="Gradient5" gradientUnits="userSpaceOnUse" x1="1067.17" y1="451.264" x2="735.034" y2="374.159">
		<stop class="stop0" offset="0" stop-opacity="1" stop-color="rgb(18,75,47)"/>
		<stop class="stop1" offset="1" stop-opacity="1" stop-color="rgb(32,118,49)"/>
	</linearGradient>
</defs>
<path transform="translate(0,0)" fill="rgb(247,189,144)" d="M 1055.14 85.1738 C 1055.69 80.6462 1054.99 82.2065 1057.44 78.8073 C 1085.35 64.2362 1163.62 144.803 1175.59 165.513 C 1209.88 224.832 1271.17 259.346 1330.16 290.147 C 1338.92 294.725 1346.64 306.975 1354.37 313.485 C 1398.77 341.512 1440.72 380.163 1424.29 438.164 C 1419.71 454.328 1397.74 474.635 1382.57 481.243 C 1350.54 495.008 1339.73 489.992 1348.31 531.536 C 1368.62 537.521 1383.07 533.529 1402.52 535.784 C 1425.48 538.445 1448.79 545.181 1472.06 545.659 C 1509.44 546.376 1589.09 538.987 1609.78 578.046 C 1630.39 616.939 1627.36 676.785 1627.2 720.064 C 1627.09 750.582 1629.48 791.67 1613.53 819.367 C 1609.37 826.595 1600.32 834.176 1593.75 839.107 C 1588.43 843.84 1556.66 858.128 1555.26 864.01 C 1552.38 879.762 1561.4 900.633 1564.8 915.487 C 1569.59 936.408 1573.05 977.812 1557.53 994.677 C 1537.94 1015.97 1540.91 1035.39 1529.84 1058.13 C 1516.82 1084.86 1480.34 1118.13 1455.07 1133.63 C 1430.98 1146.93 1364.09 1159.28 1337.23 1160.27 C 1318.78 1160.79 1300.32 1160.58 1281.89 1159.62 C 1230.46 1157.46 1136.8 1148.56 1115.1 1211.53 C 1099.53 1256.71 1154.05 1267.65 1159.57 1282.81 C 1157.59 1288.82 1150.12 1285.81 1144.87 1286.23 C 1129.32 1287.48 1115.05 1290.8 1099.14 1287.66 C 1076.96 1283.28 1043.19 1275.85 1030.79 1254.82 C 1023.52 1239.66 1023.73 1200.64 1026.73 1184.14 C 1026.58 1173.86 1030.18 1164.84 1029.26 1152.91 L 1027.73 1151.8 C 1023.31 1153.88 1017.34 1153.46 1012.43 1154.46 C 992.521 1158.51 972.481 1163.84 952.712 1168.59 C 938.272 1172.07 924.374 1177.08 909.762 1180.22 C 799.358 1203.87 697.124 1137.28 612.561 1074.94 C 591.326 1055.4 577.217 1028.93 565.684 1002.82 C 560.991 992.194 559.708 981.454 553.826 970.335 C 523.951 962.478 502.808 976.031 473.797 980.243 C 467.132 981.211 447.808 983.807 443.904 979.421 C 431.514 965.499 459.786 925.202 463.946 908.141 C 468.524 895.092 468.69 880.827 471.025 867.445 C 476.532 838.198 475.305 807.869 475.183 778.622 C 475.067 750.7 474.083 737.962 456.535 715.871 C 454.338 713.106 450.356 701.826 447.47 697.089 C 435.982 678.233 438.521 674.513 458.956 674.673 C 484.165 672.757 509.108 671.927 533.576 664.868 C 548.913 660.443 542.662 648.94 538.873 637.321 C 534.487 623.33 529.109 589.084 518.602 583.704 C 490.256 569.191 437.805 629.339 423.812 649.122 C 410.944 667.314 408.87 691.016 391.341 705.442 C 382.801 712.47 382.778 719.219 377.933 728.106 C 376.392 732.676 362.752 733.193 361.588 729.352 C 350.174 691.705 355.349 582.192 365.673 548.411 C 387.065 480.496 413.327 411.924 459.494 356.669 C 465.235 350.464 471.165 343.909 477.24 338.022 C 491.817 323.898 504.303 306.032 518.781 292.091 C 567.101 245.61 622.601 207.227 683.143 178.42 C 697.175 171.732 710.483 165.188 725.417 160.612 C 750.881 153.081 777.353 149.513 803.903 150.034 C 827.356 150.47 850.556 154.464 874.024 155.422 C 884.84 155.864 928.969 162.599 932.842 172.709 C 926.205 184.059 894.406 188.733 880.995 196.035 C 834.004 221.619 808.9 292.221 810.979 344.285 C 822.39 354.087 828.646 355.936 833.446 370.707 C 839.245 369.372 848.678 352.596 845.818 346.368 C 841.783 344.347 841.845 346.011 836.479 345.266 C 834.556 342.784 835.172 343.594 835.689 339.325 C 841.048 319.567 870.036 291.48 887.309 280.869 C 901.049 272.428 910.675 268.681 924.858 258.25 L 925.018 256.607 C 921.067 250.002 910.363 252.095 910.566 243.536 L 911.254 241.642 C 916.26 232.101 945.851 214.738 956.292 212.33 C 962.36 210.927 994.316 201.447 998.184 198.622 C 1000.4 195.25 1000.18 193.13 1000.52 189.085 C 998.237 186.77 990.485 171.409 986.483 166.288 C 980.984 162.54 972.003 148.092 962.958 141.89 C 954.244 136.738 939.594 124.916 930.674 118.412 C 930.619 116.051 930.266 114.203 932.558 112.356 C 938.024 107.954 961.007 110.834 967.576 111.523 C 994.542 114.351 1020.93 128.901 1045.1 140.56 C 1062.03 148.731 1064.08 153.266 1084.38 157.612 L 1085.09 155.983 C 1085.1 155.246 1085.11 154.508 1085.13 153.771 L 1085.12 152.776 C 1085.06 138.606 1062.53 99.423 1055.14 85.1738 z M 889.288 959.625 C 905.688 963.025 923.916 963.616 940.474 960.925 C 960.782 957.623 1007.46 938.089 1024.88 926.748 C 1035.19 920.041 1040.93 908.398 1051.18 902.299 C 1035.56 901.723 1020.44 895.806 1004.64 897.436 C 978.396 899.884 853.761 912.628 839.135 921.723 C 837.577 924.331 836.585 926.318 837.337 929.397 C 839.019 936.279 847.311 941.72 853.145 944.856 C 864.454 950.933 877.356 954.841 889.288 959.625 z M 1163.24 1056.13 C 1180.34 1056.08 1197.83 1053.1 1214.8 1051.1 C 1257.65 1046.73 1345.34 1052.76 1375.25 1016.64 C 1381.3 1009.34 1382.91 1000.54 1381.9 991.293 C 1380.79 980.981 1376.4 970.395 1368.09 963.835 C 1356.36 954.757 1341.53 950.639 1326.8 952.367 C 1266.78 960.4 1205.64 1015.19 1163.24 1056.13 z"/>
<path transform="translate(0,0)" fill="rgb(2,27,47)" d="M 1055.14 85.1738 C 1055.69 80.6462 1054.99 82.2065 1057.44 78.8073 C 1085.35 64.2362 1163.62 144.803 1175.59 165.513 C 1209.88 224.832 1271.17 259.346 1330.16 290.147 C 1338.92 294.725 1346.64 306.975 1354.37 313.485 C 1398.77 341.512 1440.72 380.163 1424.29 438.164 C 1419.71 454.328 1397.74 474.635 1382.57 481.243 C 1350.54 495.008 1339.73 489.992 1348.31 531.536 C 1368.62 537.521 1383.07 533.529 1402.52 535.784 C 1425.48 538.445 1448.79 545.181 1472.06 545.659 C 1509.44 546.376 1589.09 538.987 1609.78 578.046 C 1630.39 616.939 1627.36 676.785 1627.2 720.064 C 1627.09 750.582 1629.48 791.67 1613.53 819.367 C 1609.37 826.595 1600.32 834.176 1593.75 839.107 C 1588.43 843.84 1556.66 858.128 1555.26 864.01 C 1552.38 879.762 1561.4 900.633 1564.8 915.487 C 1569.59 936.408 1573.05 977.812 1557.53 994.677 C 1537.94 1015.97 1540.91 1035.39 1529.84 1058.13 C 1516.82 1084.86 1480.34 1118.13 1455.07 1133.63 C 1430.98 1146.93 1364.09 1159.28 1337.23 1160.27 C 1318.78 1160.79 1300.32 1160.58 1281.89 1159.62 C 1230.46 1157.46 1136.8 1148.56 1115.1 1211.53 C 1099.53 1256.71 1154.05 1267.65 1159.57 1282.81 C 1157.59 1288.82 1150.12 1285.81 1144.87 1286.23 C 1129.32 1287.48 1115.05 1290.8 1099.14 1287.66 C 1076.96 1283.28 1043.19 1275.85 1030.79 1254.82 C 1023.52 1239.66 1023.73 1200.64 1026.73 1184.14 L 1027.51 1184.27 C 1026.96 1240.76 1040.47 1263.74 1097.12 1279.56 C 1118.57 1285.55 1137.37 1283.84 1159.21 1281.57 C 1143.25 1271.48 1118.58 1257.49 1109.25 1241.46 C 1095.02 1216.97 1108.64 1191.35 1129.09 1176.2 C 1193.11 1128.73 1275.24 1155.95 1348.13 1149.96 C 1381.76 1147.47 1414.93 1140.35 1444.51 1123.42 C 1478.2 1104.14 1512.44 1070.84 1525.36 1033.51 C 1530.96 1017.32 1533.19 998.153 1537.77 981.247 C 1540.63 986.696 1542.06 990.258 1544.27 996.035 C 1571.28 942.897 1550.47 891.434 1515.46 848.395 C 1627.96 837.598 1615.6 774.204 1615.66 683.337 C 1615.67 666.041 1616.29 647.265 1614.57 630.063 C 1613.85 622.612 1612.21 615.28 1609.67 608.238 C 1588.64 550.198 1519.54 551.921 1471.17 569.41 C 1453.51 557.435 1442.82 551.511 1420.85 549.672 C 1381.71 546.397 1343.56 555.003 1305.02 560.398 C 1326.31 530.365 1339.87 516.12 1331.06 477.213 C 1343.04 480.841 1354.07 484.027 1366.61 479.187 C 1383.09 472.827 1399.85 450.441 1407.41 434.666 C 1414.59 419.667 1414.8 404.052 1408.43 387.699 C 1403.17 374.177 1384.53 346.245 1371.47 337.91 C 1369.84 336.869 1366.15 338.741 1364.56 339.546 C 1363.58 340.042 1359.27 339.148 1357.77 338.934 C 1353.74 341.889 1351.77 343.436 1347.22 345.582 C 1343.01 343.107 1331.99 308.815 1329.2 301.464 C 1318.02 295.628 1302.19 292.727 1292.05 287.521 C 1283.94 283.359 1269.56 270.029 1261.03 263.719 C 1246.61 253.042 1222.29 239.055 1210.31 226.804 C 1156.77 172.097 1140.11 99.4766 1056.03 82.8272 L 1055.14 85.1738 z"/>
<path transform="translate(0,0)" fill="rgb(7,26,41)" d="M 553.826 970.335 C 523.951 962.478 502.808 976.031 473.797 980.243 C 467.132 981.211 447.808 983.807 443.904 979.421 C 431.514 965.499 459.786 925.202 463.946 908.141 C 468.524 895.092 468.69 880.827 471.025 867.445 C 476.532 838.198 475.305 807.869 475.183 778.622 C 475.067 750.7 474.083 737.962 456.535 715.871 C 454.338 713.106 450.356 701.826 447.47 697.089 C 435.982 678.233 438.521 674.513 458.956 674.673 C 462.4 675.042 463.582 674.535 465.716 676.541 L 466.072 677.796 L 467.693 678.439 C 461.05 679.181 454.393 679.788 447.726 680.261 L 448.211 681.348 C 456.87 700.469 474.204 715.082 481.076 735.103 C 485.972 749.366 484.127 891.459 478.284 907.192 C 469.696 930.317 452.429 949.622 443.667 972.814 C 477.016 963.74 529.19 951.435 563.761 948.111 C 567.237 968.529 568.78 983.365 576.039 1002.98 C 589.581 1039.56 607.191 1062.48 636.662 1087.26 C 632.412 1073.2 629.67 1063.84 629.712 1048.84 C 642.212 1061.45 651.589 1075.8 664.119 1088.28 C 678.852 1102.96 694.713 1112.13 711.179 1123.52 C 764.543 1160.42 819.821 1176.88 884.426 1178.47 C 888.234 1178.56 892.493 1178.27 896.313 1177.68 L 897.028 1176.04 C 896.308 1164.87 881.238 1165.7 876.851 1158.1 C 926.833 1153.05 978.647 1154 1026.28 1134.68 C 1035.34 1131.01 1044.44 1127.42 1053.5 1123.75 C 1047.23 1133.22 1041.73 1141.8 1037.13 1152.22 C 1035.07 1152.41 1031.16 1152.91 1029.26 1152.91 L 1027.73 1151.8 C 1023.31 1153.88 1017.34 1153.46 1012.43 1154.46 C 992.521 1158.51 972.481 1163.84 952.712 1168.59 C 938.272 1172.07 924.374 1177.08 909.762 1180.22 C 799.358 1203.87 697.124 1137.28 612.561 1074.94 C 591.326 1055.4 577.217 1028.93 565.684 1002.82 C 560.991 992.194 559.708 981.454 553.826 970.335 z"/>
<path transform="translate(0,0)" fill="rgb(7,26,41)" d="M 538.873 637.321 C 534.487 623.33 529.109 589.084 518.602 583.704 C 490.256 569.191 437.805 629.339 423.812 649.122 C 410.944 667.314 408.87 691.016 391.341 705.442 C 382.801 712.47 382.778 719.219 377.933 728.106 C 376.392 732.676 362.752 733.193 361.588 729.352 C 350.174 691.705 355.349 582.192 365.673 548.411 C 387.065 480.496 413.327 411.924 459.494 356.669 C 465.235 350.464 471.165 343.909 477.24 338.022 C 491.817 323.898 504.303 306.032 518.781 292.091 C 567.101 245.61 622.601 207.227 683.143 178.42 C 697.175 171.732 710.483 165.188 725.417 160.612 C 750.881 153.081 777.353 149.513 803.903 150.034 L 805.707 154.387 C 722.881 157.27 661.484 188.914 594.236 233.929 C 559.115 257.438 530.993 284.748 502.597 315.666 C 430.765 389.18 388.408 483.739 369.881 584.061 C 361.045 631.911 364.735 681.214 367.357 729.381 C 373.841 715.466 382.011 696.91 389.612 683.499 C 409.559 648.304 438.703 608.678 471.252 584.124 C 478.545 578.623 493.093 572.278 501.693 568.874 C 509.477 565.793 513.336 565.795 521.461 566.097 C 523.828 568.456 528.376 573.046 529.685 576.025 C 535.539 589.349 543.101 618.388 542.78 632.353 C 541.426 634.356 541.648 635.486 541.698 637.772 C 539.944 637.855 540.585 637.891 538.873 637.321 z"/>
<path transform="translate(0,0)" fill="rgb(2,27,47)" d="M 932.842 172.709 C 926.205 184.059 894.406 188.733 880.995 196.035 C 834.004 221.619 808.9 292.221 810.979 344.285 C 822.39 354.087 828.646 355.936 833.446 370.707 C 832.83 377.324 835.914 375.061 835.893 380.706 C 827.835 392.356 821.515 404.076 814.986 416.606 C 786.657 371.781 809.754 276.19 837.099 232.643 C 844.2 221.335 872.598 195.401 884.551 190.578 C 898.343 185.013 917.727 179.254 932.842 172.709 z"/>
<path transform="translate(0,0)" fill="rgb(7,26,41)" d="M 930.674 118.412 C 930.619 116.051 930.266 114.203 932.558 112.356 C 938.024 107.954 961.007 110.834 967.576 111.523 C 994.542 114.351 1020.93 128.901 1045.1 140.56 C 1062.03 148.731 1064.08 153.266 1084.38 157.612 L 1085.09 155.983 C 1086.62 154.892 1089.58 152.184 1091.13 150.845 C 1094.59 164.001 1096.84 175.343 1099.07 188.721 C 1090.33 183.596 1081.24 176.952 1073.07 170.989 C 1035.94 143.889 997.39 115.067 949.288 114.917 C 944.167 114.901 936.981 114.761 932.022 115.861 L 931.81 117.652 L 930.674 118.412 z"/>
<path transform="translate(0,0)" fill="rgb(7,26,41)" d="M 835.689 339.325 C 841.048 319.567 870.036 291.48 887.309 280.869 C 901.049 272.428 910.675 268.681 924.858 258.25 L 925.018 256.607 C 921.067 250.002 910.363 252.095 910.566 243.536 C 917.904 247.461 947.44 243.879 956.533 253.632 C 956.275 254.759 956.333 255.633 955.002 256.089 C 945.705 259.275 937.683 261.502 928.644 265.741 C 889.812 283.949 859.224 303.019 836.479 339.992 L 836.133 342.941 C 838.42 343.201 843.25 341.787 845.811 341.14 C 854.216 339.018 861.739 338.194 870.396 337.891 C 855.687 352.944 848.03 363.194 835.893 380.706 C 835.914 375.061 832.83 377.324 833.446 370.707 C 839.245 369.372 848.678 352.596 845.818 346.368 C 841.783 344.347 841.845 346.011 836.479 345.266 C 834.556 342.784 835.172 343.594 835.689 339.325 z"/>
<path transform="translate(0,0)" fill="rgb(19,22,23)" d="M 538.873 637.321 C 540.585 637.891 539.944 637.855 541.698 637.772 C 541.648 635.486 541.426 634.356 542.78 632.353 C 544.198 640.091 548.726 661.913 546.495 668.387 C 520.484 673.509 494.157 676.867 467.693 678.439 L 466.072 677.796 L 465.716 676.541 C 463.582 674.535 462.4 675.042 458.956 674.673 C 484.165 672.757 509.108 671.927 533.576 664.868 C 548.913 660.443 542.662 648.94 538.873 637.321 z"/>
<path transform="translate(0,0)" fill="rgb(19,22,23)" d="M 803.903 150.034 C 827.356 150.47 850.556 154.464 874.024 155.422 C 884.84 155.864 928.969 162.599 932.842 172.709 C 930.758 171.219 923.147 169.231 920.429 168.45 C 887.524 159 839.714 153.705 805.707 154.387 L 803.903 150.034 z"/>
<path transform="translate(0,0)" fill="rgb(7,26,41)" d="M 1000.52 189.085 C 1001.49 187.24 1000.99 186.97 1000.68 184.435 L 999.468 183.521 L 999.665 182.46 L 1000.57 184.533 L 1001.35 184.339 C 1001.27 186.546 1003.68 188.441 1005.44 190.375 C 1007.94 195.488 1009.34 201.251 1010.88 206.751 C 991.497 209.307 978.064 211.873 959.077 216.56 L 956.292 212.33 C 962.36 210.927 994.316 201.447 998.184 198.622 C 1000.4 195.25 1000.18 193.13 1000.52 189.085 z"/>
<path transform="translate(0,0)" fill="rgb(19,22,23)" d="M 1055.14 85.1738 L 1056.03 82.8272 C 1074.23 110.95 1080.9 117.922 1091.13 150.845 C 1089.58 152.184 1086.62 154.892 1085.09 155.983 C 1085.1 155.246 1085.11 154.508 1085.13 153.771 L 1085.12 152.776 C 1085.06 138.606 1062.53 99.423 1055.14 85.1738 z"/>
<path transform="translate(0,0)" fill="rgb(2,27,47)" d="M 963.273 135.939 C 971.103 141.878 984.234 153.878 989.46 162.117 C 990.778 165.29 989.404 164.531 990.03 166.577 L 990.398 165.629 L 990.231 166.951 L 987.581 165.727 L 986.483 166.288 C 980.984 162.54 972.003 148.092 962.958 141.89 L 963.273 135.939 z"/>
<path transform="translate(0,0)" fill="rgb(62,68,70)" d="M 896.313 1177.68 C 890.506 1172.58 872.4 1167.84 870.969 1159.57 C 873.809 1157.7 872.964 1158.29 876.851 1158.1 C 881.238 1165.7 896.308 1164.87 897.028 1176.04 L 896.313 1177.68 z"/>
<path transform="translate(0,0)" fill="rgb(19,22,23)" d="M 911.254 241.642 C 916.26 232.101 945.851 214.738 956.292 212.33 L 959.077 216.56 C 946.07 221.063 936.539 224.292 924.885 231.924 C 921.437 234.181 914.055 240.211 911.254 241.642 z"/>
<path transform="translate(0,0)" fill="rgb(19,22,23)" d="M 931.81 117.652 C 941.64 121.854 954.528 129.578 963.273 135.939 L 962.958 141.89 C 954.244 136.738 939.594 124.916 930.674 118.412 L 931.81 117.652 z"/>
<path transform="translate(0,0)" fill="rgb(19,22,23)" d="M 989.46 162.117 C 995.977 169.994 1002.6 180.496 1005.44 190.375 C 1003.68 188.441 1001.27 186.546 1001.35 184.339 L 1000.57 184.533 L 999.665 182.46 L 999.468 183.521 L 1000.68 184.435 C 1000.99 186.97 1001.49 187.24 1000.52 189.085 C 998.237 186.77 990.485 171.409 986.483 166.288 L 987.581 165.727 L 990.231 166.951 L 990.398 165.629 L 990.03 166.577 C 989.404 164.531 990.778 165.29 989.46 162.117 z"/>
<path transform="translate(0,0)" fill="rgb(19,22,23)" d="M 1029.26 1152.91 C 1031.16 1152.91 1035.07 1152.41 1037.13 1152.22 C 1032.06 1164.55 1030.13 1171.18 1027.51 1184.27 L 1026.73 1184.14 C 1026.58 1173.86 1030.18 1164.84 1029.26 1152.91 z"/>
<path transform="translate(0,0)" fill="rgb(2,27,47)" d="M 1089.77 109.56 C 1118.42 125.149 1129.26 147.257 1148.15 171.995 C 1170.76 201.607 1192 235.926 1224.09 256.075 C 1238.57 265.17 1253.59 271.791 1265.53 284.462 C 1270.32 289.412 1276.01 293.408 1281.74 296.717 C 1293.46 303.48 1319.08 308.499 1321.48 324.567 C 1325 348.093 1334.37 376.95 1363.07 351.133 C 1381.45 367.13 1396.49 379.32 1398.47 405.758 C 1399.63 421.536 1394.35 437.112 1383.83 448.931 C 1369.94 464.846 1354.59 469.712 1334.22 465.525 C 1334.67 457.545 1334.44 447.378 1333.05 439.485 C 1329.48 440.539 1322.65 442.431 1319.43 443.943 C 1314.56 446.238 1307.9 452.917 1302.53 453.851 C 1300 450.154 1303.77 441.959 1305.23 437.777 C 1299.26 432.178 1277.54 414.357 1268.46 424.826 C 1259.89 434.715 1270.28 455.986 1279.43 462.433 C 1288.12 469.206 1297.33 470.682 1307.55 469.366 C 1310.05 469.024 1312.53 468.597 1315 468.087 C 1304.5 480.944 1295.18 485.416 1279.38 477.707 C 1277.7 479.94 1275.48 483.123 1273.55 485.011 C 1287.94 500.934 1302.91 493.161 1319.26 485.416 C 1319.31 511.617 1310.49 535.105 1291.04 552.939 C 1269.44 572.738 1241.9 574.224 1215.93 585.004 C 1230.58 553.355 1217.04 545.9 1194.34 525.838 C 1197.11 520.313 1203.22 508.898 1202.64 502.964 C 1198.34 459.221 1135.34 468.361 1105.99 458.066 C 1093.36 453.636 1085.14 445.599 1077.52 437.025 C 1084.3 437.148 1094.95 437.534 1100.26 432.984 L 1100.33 430.934 C 1091.37 419.278 1062.04 420.088 1048.99 423.132 C 1048.82 429.568 1035.73 450.601 1035.24 459.358 C 1035.03 463.341 1030.41 469.384 1029.19 472.804 C 1041 510.587 1067.91 530.281 1101.36 549.174 C 1119.19 559.241 1139.25 563.573 1157.52 571.199 C 1176.19 578.992 1197.32 589.72 1215.72 598.616 C 1282.18 581.931 1354.81 555.186 1424.19 565.249 C 1440.05 567.548 1455.61 578.525 1469.04 587.043 C 1507.74 571.14 1573.83 556.918 1594.31 608.445 C 1606.53 639.173 1598.91 677.904 1601.05 710.464 C 1602.88 750.333 1607.19 807.755 1561.12 824.401 C 1538.27 832.672 1509.29 836.028 1486.38 826.656 L 1482.1 836.889 C 1522.67 872.922 1540.61 902.991 1543.85 958.198 C 1543.99 960.307 1544.1 962.416 1544.18 964.527 C 1534.96 944.191 1524.93 929.075 1507.05 915.092 C 1511.25 926.715 1516.43 940.032 1518.79 952.077 C 1524.5 981.681 1519.15 1010.63 1506.69 1037.82 C 1487.13 1080.51 1451.73 1108.05 1408.46 1124.3 C 1319.44 1157.75 1219.64 1107.58 1134.5 1155.7 C 1108.67 1170.3 1091.1 1191.5 1089.77 1221.89 C 1088.32 1247.32 1098.66 1256.24 1117.88 1270.58 C 1060.78 1257.21 1030.95 1238.39 1045.41 1173.14 C 1059.3 1110.48 1129.31 1078.07 1187.04 1068.53 C 1209.28 1064.74 1230.34 1064.69 1252.85 1062.74 C 1298.57 1058.53 1379.94 1061.28 1396.2 1006.21 C 1404.44 978.316 1383.41 946.963 1355.4 941.387 C 1275.47 925.481 1212.32 997.249 1156.01 1041.06 C 1062.1 1114.13 945.151 1163.96 824.978 1136.48 L 804.358 1131.65 C 817.574 1142.07 831.365 1150.06 844.456 1160.01 C 769.498 1151.42 699.214 1108.84 651.082 1051.01 C 636.772 1033.82 629.877 1017.49 621.87 996.865 L 618.401 998.497 C 614.711 1018.55 615.306 1032.38 617.374 1052.62 C 593.642 1015.93 577.441 977.724 577.793 933.676 C 542.561 937.863 505.292 947.288 469.969 951.602 C 476.793 933.459 490.417 915.462 493.01 896.154 C 495.195 879.877 495.433 737.233 492.441 727.398 C 488.697 715.087 476.259 702.26 468.401 692.069 C 503.759 685.245 543.699 686.177 579.506 679.962 C 588.07 678.789 602.907 682.34 610.727 678.829 C 657.661 657.755 688.826 631.038 739.776 616.849 C 704.363 599.157 671.326 595.177 633.422 607.908 C 594.51 620.979 580.434 637.76 562.743 672.745 C 561.272 659.587 558.194 643.211 555.981 629.054 C 552.876 609.193 545.869 570.083 529.384 556.941 C 522.919 552.567 510.33 552.707 503.303 554.555 C 445.989 569.625 409.809 628.479 379.298 672.991 C 373.926 645.341 381.554 598.839 386.744 571.48 C 413.636 429.73 501.826 310.991 620.558 231.233 C 703.54 175.491 793.649 155.131 892.489 175.144 C 863.955 186.235 850.304 191.344 831.023 216.735 C 786.896 274.847 778.898 352.222 800.835 420.713 C 810.729 451.605 824.232 478.574 850.576 498.39 C 852.289 473.648 853.864 454.625 859.573 430.177 C 854.565 430.182 851.654 429.956 846.667 429.388 C 840.336 433.413 833.366 440.283 828.033 445.635 C 827.472 407.318 852.135 379.211 876.157 351.78 C 883.357 343.557 894.568 335.627 903.157 328.741 L 890.243 321.75 C 882.42 322.052 873.486 322.592 865.756 322.589 C 894.884 298.067 926.99 277.646 964.006 267.33 C 972.76 264.891 989.267 263.027 976.537 249.047 C 970.827 242.775 957.107 238.086 948.858 234.952 C 976.007 220.851 1005.35 219.613 1035.18 223.893 C 1016.05 184.925 1011.67 167.368 982.665 134.419 C 1001.81 139.707 1007.92 143.073 1024.23 152.731 C 1044.32 164.638 1106.82 223.563 1124.09 226.66 L 1125.16 225.589 C 1124.1 219.188 1119.03 210.599 1116.92 203.309 L 1089.77 109.56 z M 889.288 959.625 C 905.688 963.025 923.916 963.616 940.474 960.925 C 960.782 957.623 1007.46 938.089 1024.88 926.748 C 1035.19 920.041 1040.93 908.398 1051.18 902.299 C 1035.56 901.723 1020.44 895.806 1004.64 897.436 C 978.396 899.884 853.761 912.628 839.135 921.723 C 837.577 924.331 836.585 926.318 837.337 929.397 C 839.019 936.279 847.311 941.72 853.145 944.856 C 864.454 950.933 877.356 954.841 889.288 959.625 z"/>
<path transform="translate(0,0)" fill="rgb(185,150,113)" d="M 1029.19 472.804 C 1025.89 450.53 1027.96 434.312 1048.99 423.132 C 1048.82 429.568 1035.73 450.601 1035.24 459.358 C 1035.03 463.341 1030.41 469.384 1029.19 472.804 z"/>
<path transform="translate(0,0)" fill="rgb(185,150,113)" d="M 846.667 429.388 C 851.868 424.99 856.657 422.164 862.389 418.59 L 859.573 430.177 C 854.565 430.182 851.654 429.956 846.667 429.388 z"/>
<path transform="translate(0,0)" fill="rgb(185,150,113)" d="M 1266.64 469.98 C 1271.12 472.339 1275.12 474.981 1279.38 477.707 C 1277.7 479.94 1275.48 483.123 1273.55 485.011 C 1271.19 480.122 1268.91 474.936 1266.64 469.98 z"/>
<path transform="translate(0,0)" fill="rgb(217,185,156)" d="M 618.401 998.497 L 619.173 994.277 L 620.205 993.576 L 621.87 996.865 L 618.401 998.497 z"/>
<path transform="translate(0,0)" fill="rgb(24,97,48)" d="M 1291.33 856.136 C 1321.98 852.205 1351.62 848.68 1382.56 847.01 C 1403.29 844.648 1418.11 847.957 1434.69 861.035 C 1460.08 881.053 1487.54 914.754 1489.75 948.727 C 1495.41 1035.69 1440.54 1103.33 1353.65 1111.75 C 1263.25 1120.51 1157.7 1091.57 1090.74 1167.45 C 1075.13 1185.5 1071.43 1206.83 1073.92 1230.04 L 1074.27 1233.18 C 1044.93 1187.04 1073.41 1142.72 1114.26 1117.64 C 1147.19 1097.41 1180.91 1087.9 1219.3 1083.24 C 1279.75 1075.8 1353.74 1087.28 1403.17 1043.09 C 1421.81 1026.42 1423.84 1004.56 1435.05 988.859 C 1435.31 970.314 1425.15 939.468 1410.77 928.057 C 1321.95 857.588 1195.26 979.586 1128.28 1028.03 C 1034.35 1095.97 936.561 1131.9 822.038 1106.96 C 770.964 1095.44 719.158 1075.33 680.778 1038.17 C 651.916 1010.23 631.799 969.76 632.042 929.488 L 632.065 926.986 L 656.813 923.796 C 651.483 935.792 652.818 944 655.56 956.984 C 657.716 959.923 663.042 968.083 665.827 969.136 C 666.679 965.332 665.233 956.233 664.743 951.914 C 669.313 952.138 668.625 951.378 671.47 953.721 C 672.981 957.91 671.747 961.593 671.866 966.248 C 672.837 976.237 679.747 972.331 685.054 978.069 C 692.105 985.693 692.51 993.499 702.807 998.903 C 705.02 1000.78 706.866 1002.23 708.788 1004.43 C 713.803 1003.41 718.226 1000.42 725.484 999.276 C 738.466 997.224 747.155 1005.38 754.36 1005.45 C 753.898 1001.68 753.379 999.385 752.515 995.772 C 764.526 1003.5 776.132 1011.17 789.429 1016.71 C 832.452 1034.65 885.627 1030.36 930.156 1021.05 C 954.349 1015.99 982.424 1005.17 1004.84 995.241 C 1008.74 991.931 1044.7 974.045 1051.26 970.711 C 1070.79 960.998 1089.85 950.36 1108.36 938.833 C 1122.82 929.804 1140.48 916.41 1154.03 905.858 C 1170.63 892.935 1188.63 877.31 1207.79 867.957 C 1220.18 861.911 1247.66 859.944 1261.91 859.024 C 1265.08 856.722 1286.54 856.05 1291.33 856.136 z"/>
<path transform="translate(0,0)" fill="rgb(35,121,51)" d="M 752.515 995.772 C 764.526 1003.5 776.132 1011.17 789.429 1016.71 C 832.452 1034.65 885.627 1030.36 930.156 1021.05 C 954.349 1015.99 982.424 1005.17 1004.84 995.241 C 1005.66 996.447 1006.87 997.453 1006.25 998.95 C 997.085 1020.77 964.732 1036.62 944.225 1046.44 C 933.889 1048.55 920.785 1048.85 910.5 1050.17 C 890.592 1052.71 873.988 1058.82 853.953 1053.61 C 834.454 1048.54 811.83 1037.35 793.35 1051.27 L 793.087 1052.96 C 798.008 1053.63 806.74 1051.62 812.251 1051.12 C 826.842 1049.82 868.451 1065.42 857.655 1086.29 C 851.721 1088.38 839.515 1080.28 833.012 1078.15 C 818.686 1073.44 787.177 1081.25 774.848 1074.13 C 776.587 1068.58 781.375 1067.76 786.557 1065.35 C 793.076 1060.92 792.159 1059.46 792.285 1051.8 C 790.077 1046.64 788.606 1043.81 785.79 1038.94 C 777.185 1033.57 771.587 1032.2 761.435 1032 C 745.377 1012.33 737.915 1003.62 712.357 1011.53 L 708.788 1004.43 C 713.803 1003.41 718.226 1000.42 725.484 999.276 C 738.466 997.224 747.155 1005.38 754.36 1005.45 C 753.898 1001.68 753.379 999.385 752.515 995.772 z"/>
<path transform="translate(0,0)" fill="rgb(35,121,51)" d="M 763.077 1068.59 C 751.544 1066.66 725.993 1052.59 716.842 1045.06 C 711.505 1040.68 689.116 1014.5 690.867 1007.45 C 693.347 1005.54 693.736 1005.46 696.86 1005.08 C 706.322 1007.91 703.727 1020.75 706.65 1023.41 C 711.201 1022.93 722.541 1017.6 729.284 1015.79 C 730.3 1016.06 731.308 1016.35 732.307 1016.67 C 739.852 1019.09 757.291 1030.07 753.917 1039.71 C 749.023 1044.8 739.353 1045.69 732.226 1047.08 L 732.081 1049.09 C 740.685 1062.14 757.018 1047.98 763.661 1040.6 C 779.678 1044.77 779.656 1045.16 785.558 1060.2 L 786.557 1065.35 C 781.375 1067.76 776.587 1068.58 774.848 1074.13 L 774.379 1070.48 C 772.06 1068.81 768.22 1069.67 763.877 1068.76 L 763.077 1068.59 z"/>
<path transform="translate(0,0)" fill="rgb(19,83,47)" d="M 785.558 1060.2 L 786.557 1065.35 C 781.375 1067.76 776.587 1068.58 774.848 1074.13 L 774.379 1070.48 C 772.06 1068.81 768.22 1069.67 763.877 1068.76 L 763.077 1068.59 C 771.354 1068.17 782.379 1069.11 785.558 1060.2 z"/>
<path transform="translate(0,0)" fill="rgb(19,83,47)" d="M 1260.83 875.235 C 1265.01 886.135 1253.41 889.558 1245.11 892.893 C 1219 886.609 1219.85 884.675 1198.8 902.762 C 1203.93 908.95 1208.28 913.702 1211.85 921.008 C 1179.83 914.735 1178.94 912.575 1156 937.047 C 1160.75 926.159 1163.2 919.86 1174.07 913.072 C 1184.7 912.097 1188.94 911.988 1199.55 914.391 L 1191.86 900.507 C 1208.04 882.696 1217.87 884.303 1241.24 881.661 C 1243.92 881.36 1246.44 882.314 1248.99 883.186 L 1250.2 884.1 L 1249.52 885.316 C 1245.22 886.313 1228.59 885.998 1222.59 886.239 C 1239.69 887.786 1246.62 896.756 1260.62 880.701 L 1260.13 878.48 C 1260.17 877.804 1260.66 875.994 1260.83 875.235 z"/>
<path transform="translate(0,0)" fill="rgb(24,97,48)" d="M 1235.09 884.685 C 1238.22 882.007 1244.85 882.982 1248.99 883.186 C 1245.43 885.908 1239.6 884.942 1235.09 884.685 z"/>
<path transform="translate(0,0)" fill="rgb(35,121,51)" d="M 681.616 997.297 C 680.121 999.781 681.154 1003.51 679.398 1008.23 L 677.426 1008.48 C 670.369 1004.81 654.856 980.961 655.289 973.123 L 657.029 972.446 L 660.744 974.135 C 667.533 979.448 675.898 981.759 683.958 985.891 L 681.616 997.297 z"/>
<path transform="translate(0,0)" fill="rgb(7,43,46)" d="M 1261.91 859.024 C 1265.08 856.722 1286.54 856.05 1291.33 856.136 C 1290.91 858.803 1291.07 861.34 1288.33 862.745 C 1276.95 868.593 1271.06 866.439 1260.83 875.235 C 1260.66 875.994 1260.17 877.804 1260.13 878.48 L 1259.77 878.954 C 1257.51 881.847 1257.1 883.146 1254 883.522 C 1252.27 880.743 1253.38 873.963 1253.64 870.21 C 1257.33 867.249 1263.48 863.654 1264.94 860.042 L 1261.91 859.024 z"/>
<path transform="translate(0,0)" fill="rgb(17,64,47)" d="M 664.743 951.914 C 669.313 952.138 668.625 951.378 671.47 953.721 C 672.981 957.91 671.747 961.593 671.866 966.248 C 672.837 976.237 679.747 972.331 685.054 978.069 C 692.105 985.693 692.51 993.499 702.807 998.903 C 705.02 1000.78 706.866 1002.23 708.788 1004.43 L 712.357 1011.53 C 711.55 1013.96 711.262 1016.53 709.486 1017.48 C 709.355 1015.59 709.31 1009.21 708.546 1008.24 C 705.723 1004.48 696.681 1000.39 694.243 996.892 C 687.956 987.707 686.479 972.611 671.516 975.124 C 665.936 976.061 662.024 968.183 658.456 964.617 C 660.068 978.004 673.898 977.993 682.809 983.366 C 685.925 988.516 684.154 992.057 682.671 998.266 L 681.616 997.297 L 683.958 985.891 C 675.898 981.759 667.533 979.448 660.744 974.135 C 656.746 967.738 656.124 964.472 655.56 956.984 C 657.716 959.923 663.042 968.083 665.827 969.136 C 666.679 965.332 665.233 956.233 664.743 951.914 z"/>
<path transform="translate(0,0)" fill="rgb(19,83,47)" d="M 1111.51 956.303 C 1121.57 948.385 1132.19 936.692 1146.12 938.781 C 1168.61 942.154 1175.29 958.444 1158.56 975.255 C 1153.47 980.374 1141.09 983.479 1136.41 976.025 L 1136.61 973.705 C 1137.02 973.485 1138.75 972.493 1139.25 972.351 C 1134.89 970.318 1131.3 967.567 1126.94 966.063 L 1125.9 967.566 C 1122.35 967.104 1114.53 959.089 1111.51 956.303 z"/>
<path transform="translate(0,0)" fill="rgb(35,121,51)" d="M 1141.38 945.721 C 1167.83 951.65 1163.96 970.519 1139.25 972.351 C 1134.89 970.318 1131.3 967.567 1126.94 966.063 C 1127.2 955.539 1133.05 950.971 1141.38 945.721 z"/>
<path transform="translate(0,0)" fill="rgb(19,83,47)" d="M 1086.93 974.343 C 1094.07 973.274 1102.73 972.92 1109.29 976.455 C 1113.84 978.91 1119.78 985.365 1121.32 990.338 L 1120.45 991.29 C 1115.06 990.645 1108.22 984.955 1103.66 982.07 C 1100.11 981.897 1096.54 981.886 1092.98 982.038 C 1071.79 983.088 1055.43 1000.19 1042 1015.01 C 1051.72 1014.64 1062.04 1017.13 1071.56 1016.14 C 1074.99 1015.78 1077.83 1013.11 1081.13 1012.76 C 1083.08 1012.55 1084.57 1013.49 1086.11 1014.54 L 1086.36 1016.51 L 1074.75 1023.26 C 1046.02 1015.29 1034.15 1027.63 1007.8 1032.56 C 1013.18 1026.01 1021.28 1022.29 1027.55 1016.66 C 1045.84 1000.23 1060.57 977.824 1086.93 974.343 z"/>
<path transform="translate(0,0)" fill="rgb(17,64,47)" d="M 1397.73 862.622 C 1398.66 862.67 1399.66 862.682 1400.58 862.86 C 1403.37 863.4 1403.67 864.037 1405.11 866.262 C 1405.33 869.645 1404.51 872.394 1403.59 875.593 C 1403.29 875.511 1402.99 875.435 1402.69 875.346 C 1399.71 874.454 1397.4 873.322 1395.91 870.529 C 1395.4 867.419 1396.52 865.395 1397.73 862.622 z"/>
<path transform="translate(0,0)" fill="rgb(62,137,64)" d="M 1377.97 874.029 C 1384.04 874.496 1388.5 876.413 1393.47 879.828 C 1387.78 879.06 1382.64 877.457 1377.97 874.029 z"/>
<path transform="translate(0,0)" fill="rgb(35,121,51)" d="M 1032 178.056 C 1063.29 199.326 1090.7 230.166 1124.56 249.773 C 1150.44 264.762 1177.55 272.122 1204.81 284.739 C 1213.73 288.861 1224.6 298.519 1227.31 299.483 L 1227.94 297.964 C 1226.63 293.582 1223.01 283.78 1223.63 279.75 C 1235.85 278.659 1262.31 308.268 1277.85 315.184 C 1285.44 317.858 1290.59 319.868 1297.91 323.226 C 1304.86 327.835 1305.78 338.681 1307.61 347.108 C 1316.7 372.701 1337.87 377.541 1362.94 375.325 C 1377.3 387.662 1383.61 400.846 1381.21 419.956 C 1379 428.415 1377.92 431.336 1372.48 438.128 C 1369.43 444.079 1356.63 450.275 1350.59 453.181 C 1349.02 443.05 1344.64 408.079 1336.04 403.662 L 1334.83 404.547 L 1334.23 410.039 C 1334.2 413.464 1331.65 421.349 1329.58 423.485 C 1323.43 429.813 1296.71 413.568 1290.07 410.737 C 1268.24 401.427 1247.58 401.852 1224.66 402.228 C 1213.64 405.171 1184.55 413.368 1177.5 422.149 L 1177.07 424.187 C 1182.11 429.084 1194.52 435.625 1201.22 439.486 C 1223.08 452.099 1239.59 486.967 1234.37 512.233 C 1236.9 523.509 1250.12 522.847 1259.13 520.484 C 1258.78 525.961 1258.87 527.013 1255.77 531.507 L 1255.97 536.506 L 1255.98 540.249 C 1256.25 544.511 1256.89 550.766 1256.22 554.764 L 1254.62 555.227 C 1249.3 557.951 1243.15 560.017 1237.5 562.088 C 1231.22 534.964 1227.78 540.539 1216.16 519.363 C 1218.14 506.618 1218.46 494.538 1212.41 482.655 C 1192.62 443.829 1144.13 452.227 1114.03 441.631 C 1123.93 435.249 1127.05 435.943 1134.79 425.791 C 1102 394.195 1088.24 406.108 1059.71 391.858 C 1063.08 388.329 1064.12 387.488 1068.09 384.69 C 1083.1 377.707 1105.02 378.002 1121.34 378.138 C 1121.11 376.757 1120.49 375.523 1119.26 374.798 C 1096.55 361.436 1076.06 346.23 1055.25 330.03 C 1051.25 327.643 1044.18 325.166 1041.5 322.404 C 1043.31 320.455 1046.54 320.682 1049.81 320.213 C 1071.48 319.481 1102.47 317.261 1122.74 321.026 C 1133.43 320.931 1145.3 321.114 1155.78 319.734 C 1146.22 306.477 1126.74 292.878 1113.81 282.418 C 1099.02 270.463 1060.5 232.817 1055.19 215.167 C 1048.84 207.759 1037.45 187.287 1032 178.056 z"/>
<path transform="translate(0,0)" fill="rgb(19,83,47)" d="M 1059.71 391.858 C 1063.08 388.329 1064.12 387.488 1068.09 384.69 C 1077.44 390.759 1101.92 387.637 1120.15 396.935 C 1125.91 408.855 1131.87 410.018 1139.84 419.397 C 1144.79 427.54 1139.19 431.733 1149.7 435.086 C 1157.08 437.438 1164.8 437.967 1172.26 439.91 C 1204.87 448.405 1228.53 480.035 1227.38 513.841 L 1234.37 512.233 C 1236.9 523.509 1250.12 522.847 1259.13 520.484 C 1258.78 525.961 1258.87 527.013 1255.77 531.507 L 1255.97 536.506 L 1255.98 540.249 C 1256.25 544.511 1256.89 550.766 1256.22 554.764 L 1254.62 555.227 C 1249.3 557.951 1243.15 560.017 1237.5 562.088 C 1231.22 534.964 1227.78 540.539 1216.16 519.363 C 1218.14 506.618 1218.46 494.538 1212.41 482.655 C 1192.62 443.829 1144.13 452.227 1114.03 441.631 C 1123.93 435.249 1127.05 435.943 1134.79 425.791 C 1102 394.195 1088.24 406.108 1059.71 391.858 z"/>
<path transform="translate(0,0)" fill="rgb(35,121,51)" d="M 1227.38 513.841 L 1234.37 512.233 C 1236.9 523.509 1250.12 522.847 1259.13 520.484 C 1258.78 525.961 1258.87 527.013 1255.77 531.507 L 1255.97 536.506 L 1255.98 540.249 L 1250.7 540.891 C 1250.07 537.525 1250.12 535.726 1247.75 533.321 C 1245.01 532.321 1235.65 533.543 1231.46 533.627 C 1226.76 526.408 1221.16 521.301 1227.38 513.841 z"/>
<path transform="translate(0,0)" fill="rgb(24,97,48)" d="M 1250.7 540.891 L 1255.98 540.249 C 1256.25 544.511 1256.89 550.766 1256.22 554.764 L 1254.62 555.227 L 1253.1 554.359 C 1251.35 551.552 1251.08 544.564 1250.7 540.891 z"/>
<path transform="translate(0,0)" fill="rgb(171,183,100)" d="M 1032 178.056 C 1063.29 199.326 1090.7 230.166 1124.56 249.773 C 1150.44 264.762 1177.55 272.122 1204.81 284.739 C 1200.23 286.936 1180.1 285.315 1174.96 283.617 C 1146.21 274.099 1117.74 260.338 1092.46 243.672 C 1080.27 235.634 1068.96 222.508 1056.14 215.668 L 1055.19 215.167 C 1048.84 207.759 1037.45 187.287 1032 178.056 z"/>
<path transform="translate(0,0)" fill="rgb(19,83,47)" d="M 1224.66 402.228 C 1229.73 398.074 1243.88 392.949 1249.21 391.668 C 1269.34 386.833 1286.65 388.561 1304.41 398.574 C 1307 400.033 1310.4 396.398 1313.23 399.145 C 1317.32 403.11 1317.89 411.789 1322.67 414.655 C 1330.22 413.907 1330.39 407.385 1331.32 400.93 C 1333.71 404.405 1333.75 405.781 1334.23 410.039 C 1334.2 413.464 1331.65 421.349 1329.58 423.485 C 1323.43 429.813 1296.71 413.568 1290.07 410.737 C 1268.24 401.427 1247.58 401.852 1224.66 402.228 z"/>
<path transform="translate(0,0)" fill="rgb(19,83,47)" d="M 1365.28 422.631 C 1361.53 410.501 1362.47 414.417 1357.04 405.508 C 1351.77 396.882 1333.06 387.112 1334.24 381.911 C 1347.19 378.474 1365.63 409.354 1369.23 419.892 C 1369.82 424.26 1370.35 435.454 1372.48 438.128 C 1369.43 444.079 1356.63 450.275 1350.59 453.181 C 1349.02 443.05 1344.64 408.079 1336.04 403.662 L 1334.83 404.547 L 1334.23 410.039 C 1333.75 405.781 1333.71 404.405 1331.32 400.93 C 1328.86 397.041 1327.54 395.4 1326.45 390.915 L 1327.39 388.849 C 1341.49 385.825 1356.42 414.678 1365.28 422.631 z"/>
<path transform="translate(0,0)" fill="rgb(19,83,47)" d="M 1055.25 330.03 C 1072.15 331.822 1135.39 363.043 1148.28 377.75 C 1150.07 379.784 1160.01 396.121 1161.69 399.528 C 1158.28 397.48 1151.14 392.937 1147.77 391.541 C 1148.68 388.903 1148.73 388.844 1148.95 386.086 L 1146.57 383.762 C 1137.03 380.704 1130.34 380.516 1121.34 378.138 C 1121.11 376.757 1120.49 375.523 1119.26 374.798 C 1096.55 361.436 1076.06 346.23 1055.25 330.03 z"/>
<path transform="translate(0,0)" fill="rgb(171,183,100)" d="M 1227.94 297.964 C 1226.63 293.582 1223.01 283.78 1223.63 279.75 C 1235.85 278.659 1262.31 308.268 1277.85 315.184 C 1285.44 317.858 1290.59 319.868 1297.91 323.226 L 1297.05 325.356 L 1291.1 327.711 C 1286.9 326.393 1282.2 322.269 1278.58 319.468 C 1273.96 316.175 1267.69 312.405 1262.82 309.277 L 1256.33 305.241 C 1248.81 300.232 1240.94 293.699 1232.15 292.773 C 1229.06 294 1229.72 294.31 1227.94 297.964 z"/>
<path transform="translate(0,0)" fill="rgb(171,183,100)" d="M 1049.81 320.213 C 1071.48 319.481 1102.47 317.261 1122.74 321.026 C 1125.28 321.699 1129.48 322.259 1130.75 323.914 C 1127.75 325.608 1108.16 324.782 1104.35 324.041 C 1092.99 321.831 1057.82 326.517 1049.27 321.559 L 1049.81 320.213 z"/>
<path transform="translate(0,0)" fill="rgb(24,97,48)" d="M 1353.61 376.551 C 1363.78 383.169 1368.87 389.905 1371.62 401.961 C 1372.86 407.364 1373.11 414.945 1375.47 419.319 C 1377.57 420.483 1378.8 420.129 1381.21 419.956 C 1379 428.415 1377.92 431.336 1372.48 438.128 C 1370.35 435.454 1369.82 424.26 1369.23 419.892 C 1375.71 407.562 1360.4 386.338 1353.61 376.551 z"/>
<path transform="translate(0,0)" fill="rgb(62,137,64)" d="M 1227.94 297.964 C 1229.72 294.31 1229.06 294 1232.15 292.773 C 1240.94 293.699 1248.81 300.232 1256.33 305.241 C 1249.68 305.136 1234.92 300.574 1231.76 301.928 C 1231.4 304.304 1231.64 304.762 1230.38 306.63 C 1229.28 304.28 1228.26 301.896 1227.31 299.483 L 1227.94 297.964 z"/>
<path transform="translate(0,0)" fill="rgb(138,177,104)" d="M 1297.91 323.226 C 1304.86 327.835 1305.78 338.681 1307.61 347.108 L 1305.58 347.45 C 1298 343.817 1297.91 332.856 1297.05 325.356 L 1297.91 323.226 z"/>
<path transform="translate(0,0)" fill="rgb(62,137,64)" d="M 1262.82 309.277 C 1267.69 312.405 1273.96 316.175 1278.58 319.468 C 1282.2 322.269 1286.9 326.393 1291.1 327.711 C 1283.12 329.668 1276.02 324.254 1269.55 320.226 C 1267.39 314.913 1266.41 313.732 1262.82 309.277 z"/>
<path transform="translate(0,0)" fill="rgb(24,97,48)" d="M 1146.57 383.762 L 1148.95 386.086 C 1148.73 388.844 1148.68 388.903 1147.77 391.541 C 1144.29 390.441 1129.92 386.933 1128.48 385.925 L 1129.16 384.244 C 1133.54 383.157 1142.09 385.369 1147.1 386.219 L 1146.57 383.762 z"/>
<path transform="translate(0,0)" fill="rgb(7,26,41)" d="M 1189.26 312.521 C 1200.3 318.448 1207.78 322.779 1219.93 326.182 C 1230.48 329.137 1245.52 329.368 1254.55 334.575 C 1265.88 341.108 1278.59 355.144 1287.19 365.004 C 1275.92 368.157 1249.57 371.436 1244.64 373.15 C 1238.36 376.998 1209.78 359.197 1209.12 347.97 C 1201.42 336.063 1194.02 325.979 1189.26 312.521 z"/>
<path transform="translate(0,0)" fill="rgb(138,177,104)" d="M 1244.64 373.15 C 1238.36 376.998 1209.78 359.197 1209.12 347.97 C 1219.83 361.003 1228.36 367.379 1244.64 373.15 z"/>
<path transform="translate(0,0)" fill="rgb(156,171,182)" d="M 1222.22 346.199 C 1220.64 343.034 1220.51 344.005 1221.28 341.422 C 1230.13 337.097 1245.95 345.448 1247.91 356.472 C 1246.67 361.026 1247.67 359.831 1244.58 362 C 1241.06 362.114 1240.56 361.937 1237.21 360.798 C 1229.24 357.395 1226.35 353.402 1222.22 346.199 z"/>
<path transform="translate(0,0)" fill="rgb(254,254,254)" d="M 1222.22 346.199 C 1226.91 345.939 1233.3 348.656 1237.93 350.264 L 1238.55 359.357 L 1237.21 360.798 C 1229.24 357.395 1226.35 353.402 1222.22 346.199 z"/>
<path transform="translate(0,0)" fill="rgb(194,203,208)" d="M 1237.93 350.264 C 1242.78 352.402 1243.73 353.199 1247.91 356.472 C 1246.67 361.026 1247.67 359.831 1244.58 362 C 1241.06 362.114 1240.56 361.937 1237.21 360.798 L 1238.55 359.357 L 1237.93 350.264 z"/>
<path transform="translate(0,0)" fill="rgb(19,83,47)" d="M 1290.73 364.335 C 1298.44 366.206 1308.35 373.037 1311.97 380.26 C 1302.61 379.899 1293.32 373.568 1290.73 364.335 z"/>
<path transform="translate(0,0)" fill="url(#Gradient5)" d="M 815.297 190.214 C 816.033 190.793 818.177 192.011 817.82 193.014 C 811.153 211.738 798.427 227.889 790.498 246.625 C 750.668 340.749 765.968 454.498 843.361 525.138 C 872.265 551.521 911.605 573.327 948.563 584.921 C 935.469 568.459 920.415 554.358 908.068 539.358 C 858.922 479.648 878.115 375.299 930.873 323.63 C 935.298 319.297 943.824 311.917 940.636 305.984 C 935.609 302.66 928.615 303.93 922.48 304.312 C 947.973 286.055 995.195 276.042 1026.43 280.337 C 1043.83 282.729 1062.39 292.816 1075.68 304.39 C 1045.54 308.444 1016.64 304.168 989.038 312.508 C 997.429 314.959 1020.96 321.378 1016.94 332.588 C 1010.25 339.544 994.101 341.895 984.724 348.108 C 943.717 375.278 924.452 417.343 925.234 466.014 C 925.999 513.706 952.912 556.324 985.886 589.198 C 998.84 602.006 1017.65 612.107 1033.64 621.048 C 1019.28 624.955 1008.95 625.345 994.786 626.939 C 946.787 632.338 916.864 619.067 875.662 596.429 C 810.185 560.453 777.272 507.035 757.786 436.045 C 740.858 374.371 746.418 311.861 765.193 251.203 C 768.802 239.543 780.623 215.155 781.89 208.241 C 782.634 206.646 782.38 207.492 782.188 205.558 C 778.928 204.236 771.536 204.734 766.663 204.176 C 783.093 195.366 799.321 202.593 815.297 190.214 z"/>
<path transform="translate(0,0)" fill="rgb(247,189,144)" d="M 1145.23 858.447 L 1145.91 858.707 L 1146.25 860.049 C 1141.56 867.945 1134.33 875.289 1128.18 882.155 C 1088.14 926.354 1036.25 958.134 978.685 973.721 C 930.801 986.672 877.897 983.397 834.443 958.366 C 832.803 957.232 831.192 956.056 829.611 954.841 C 819.311 946.872 809.733 933.349 808.269 920.114 C 807.593 914.007 809.219 908.475 813.083 903.679 C 818.194 897.337 828.627 895.095 836.216 893.434 C 874.235 885.108 914.677 883.069 953.407 879.007 C 1017.4 872.637 1081.34 865.784 1145.23 858.447 z M 889.288 959.625 C 905.688 963.025 923.916 963.616 940.474 960.925 C 960.782 957.623 1007.46 938.089 1024.88 926.748 C 1035.19 920.041 1040.93 908.398 1051.18 902.299 C 1035.56 901.723 1020.44 895.806 1004.64 897.436 C 978.396 899.884 853.761 912.628 839.135 921.723 C 837.577 924.331 836.585 926.318 837.337 929.397 C 839.019 936.279 847.311 941.72 853.145 944.856 C 864.454 950.933 877.356 954.841 889.288 959.625 z"/>
<path transform="translate(0,0)" fill="rgb(2,27,47)" d="M 1094.98 878.374 C 1099.19 877.839 1104.28 876.556 1107.96 879.096 L 1108.3 881.18 C 1101.42 898.193 1034.78 937.513 1015.84 946.093 C 963.979 969.59 909.255 973.582 855.74 953.344 C 851.435 951.599 847.141 949.461 843.288 946.868 C 835.895 941.891 824.852 933.024 823.421 923.564 C 822.96 920.521 823.743 917.692 825.682 915.307 C 830.339 909.579 839.442 907.953 846.334 906.477 C 879.324 899.411 914.305 897.366 947.854 894.205 C 996.998 889.904 1046.05 884.626 1094.98 878.374 z M 889.288 959.625 C 905.688 963.025 923.916 963.616 940.474 960.925 C 960.782 957.623 1007.46 938.089 1024.88 926.748 C 1035.19 920.041 1040.93 908.398 1051.18 902.299 C 1035.56 901.723 1020.44 895.806 1004.64 897.436 C 978.396 899.884 853.761 912.628 839.135 921.723 C 837.577 924.331 836.585 926.318 837.337 929.397 C 839.019 936.279 847.311 941.72 853.145 944.856 C 864.454 950.933 877.356 954.841 889.288 959.625 z"/>
<path transform="translate(0,0)" fill="rgb(254,254,254)" d="M 1137.61 638.406 C 1140.37 637.967 1143.41 637.668 1145.71 639.239 C 1145.25 657.694 1139.9 677.86 1136.69 696.157 C 1128.72 741.538 1119.13 787.517 1115.8 833.508 C 1101.39 834.958 1086.98 836.233 1072.54 837.332 C 1063.81 801.33 1059.01 761.268 1055.17 724.36 C 1047.93 762.948 1043.43 802.117 1037.58 840.942 C 1023.05 843.327 1007.69 844.507 992.985 845.279 C 993.363 825.381 988.938 804.768 985.761 785.166 L 972.556 704.752 C 970.12 687.691 966.304 671.725 961.02 655.35 C 974.636 654.281 988.197 652.615 1001.83 651.648 C 1001.79 669.676 1005.43 688.223 1007.82 706.1 C 1011.07 730.863 1014.15 755.648 1017.06 780.453 C 1021.56 736.309 1030.72 692.43 1036.32 648.331 C 1048.89 646.011 1062.03 645.181 1074.76 643.859 C 1075.22 662.424 1078.47 681.603 1081.09 699.987 C 1084.83 724.701 1088.12 749.48 1090.96 774.312 C 1095.46 729.734 1105.01 685.985 1108.45 641.14 C 1118.1 639.869 1127.92 639.271 1137.61 638.406 z"/>
<path transform="translate(0,0)" fill="rgb(19,83,47)" d="M 423.467 586.31 C 447.48 497.062 512.747 413.55 581.708 353.15 C 599.889 337.226 639.7 310.877 661.604 296.773 C 618.171 344.21 582.626 442.181 573.512 505.471 C 572.334 513.646 567.498 545.656 572.039 552.004 L 573.644 551.272 C 572.879 558.725 570.262 581.626 571.641 588.173 L 571.863 590.407 C 570.232 591.638 570.345 591.651 568.396 592.194 C 559.006 560.942 549.63 534.759 512.433 535.158 C 474.422 535.566 448.08 560.953 423.467 586.31 z"/>
<path transform="translate(0,0)" fill="rgb(35,121,51)" d="M 473.789 515.316 C 510.311 450.156 529.211 443.139 589.212 403.135 C 585.229 418.184 576.33 438.742 570.79 453.797 C 558.194 488.03 556.09 512.322 556.401 548.443 C 528.555 521.941 506.714 519.607 471.876 536.599 C 468.805 538.289 467.816 539.127 464.35 539.358 C 458.487 534.961 470.185 519.575 473.789 515.316 z"/>
<path transform="translate(0,0)" fill="rgb(24,97,48)" d="M 473.789 515.316 C 473.866 520.879 471.105 534.935 471.876 536.599 C 468.805 538.289 467.816 539.127 464.35 539.358 C 458.487 534.961 470.185 519.575 473.789 515.316 z"/>
<path transform="translate(0,0)" fill="rgb(19,83,47)" d="M 711.816 352.927 C 713.562 355.327 711.559 415.024 712.194 424.494 C 714.533 459.362 716.884 485.287 729.9 518.002 C 747.432 562.068 763.383 580.56 792.895 614.47 C 784.908 612.512 775.746 610.352 768.126 607.349 C 740.33 596.396 715.171 582.184 684.735 580.894 C 637.467 580.81 630.787 587.9 591.009 606.385 C 596.736 593.852 603.836 579.317 608.685 566.585 C 617.538 543.344 624.966 518.912 634.044 495.779 C 646.626 463.527 661.621 432.268 678.899 402.268 C 688.489 385.547 699.274 367.597 711.816 352.927 z"/>
<path transform="translate(0,0)" fill="rgb(35,121,51)" d="M 687.418 477.737 C 692.515 483.122 702.527 525.813 707.423 537.199 C 716.054 557.274 730.252 573.237 743.08 590.66 C 729.708 587.322 716.954 582.257 703.401 579.5 C 681.197 574.737 661.13 574.488 638.487 575.972 C 644.538 556.102 655.932 538.189 665.629 519.922 C 673.051 505.942 679.84 491.629 687.418 477.737 z"/>
<path transform="translate(0,0)" fill="rgb(254,254,254)" d="M 906.967 659.5 C 919.023 658.512 933.176 656.652 943.583 664.271 C 950.73 669.504 952.379 677.041 953.55 685.458 C 956.609 707.446 954.889 731.504 954.868 753.727 C 954.845 777.5 956.999 804.011 952.897 827.375 C 951.98 832.794 949.743 837.904 946.383 842.253 C 936.605 854.888 915.86 854.974 901.232 856.958 C 891.081 858.223 881.05 858.919 870.843 857.976 C 870.199 857.532 869.574 857.061 868.969 856.566 C 861.849 850.731 857.685 843.38 856.714 834.192 C 854.287 811.23 855.933 786.535 855.927 763.368 C 855.922 743.518 853.974 707.312 857.379 689.487 C 858.472 683.768 862.194 677.863 865.887 673.452 C 876.444 660.843 891.828 660.728 906.967 659.5 z"/>
<path transform="translate(0,0)" fill="rgb(2,27,47)" d="M 899.666 696.225 C 903.093 695.884 907.1 695.163 910.515 695.566 C 913.07 695.868 916.12 696.985 917.639 699.211 C 923.051 707.143 921.438 801.887 917.925 813.137 C 916.765 816.852 913.446 818.289 910.287 820.066 C 907.437 820.823 903.713 821.447 900.774 821.233 C 898.207 821.046 895.691 819.865 894.205 817.714 C 888.201 809.019 889.689 716.3 892.839 703.347 C 893.824 699.297 896.312 698.269 899.666 696.225 z"/>
<path transform="translate(0,0)" fill="rgb(254,254,254)" d="M 575.874 707.383 C 584.935 705.978 595.174 705.704 602.984 711.261 C 609.992 716.247 611.934 723.312 613.18 731.446 C 616.56 753.515 614.85 777.465 614.813 799.832 C 614.774 822.656 616.657 848.27 612.658 870.749 C 611.675 876.273 608.959 881.739 605.619 886.207 C 592.91 903.206 567.62 904.974 548.24 907.72 C 537.697 908.88 527.162 910.813 516.691 912.496 C 522.939 888.481 520.105 838.53 520.091 811.433 C 520.076 783.825 521.436 755.358 518.966 727.879 C 518.583 723.615 517.519 719.697 516.126 715.664 C 535.944 712.236 555.871 709.474 575.874 707.383 z"/>
<path transform="translate(0,0)" fill="rgb(2,27,47)" d="M 561.073 745.345 C 566.262 744.855 572.376 743.596 577.069 746.312 C 582.923 757.542 580.268 840.309 578.152 856.169 C 577.52 860.908 577.062 863.757 573.038 866.807 C 566.979 868.261 561.251 868.962 555.052 869.426 C 555.027 853.266 553.14 751.345 556.051 746.42 L 561.073 745.345 z"/>
<path transform="translate(0,0)" fill="rgb(254,254,254)" d="M 1315.55 623.412 C 1315.76 623.381 1315.96 623.341 1316.17 623.32 C 1326.09 622.292 1337.92 622.716 1345.89 629.476 C 1353.32 635.775 1355.7 645.521 1356.45 654.835 C 1357.7 670.285 1358.19 711.137 1353.48 724.797 C 1351.03 731.89 1347.08 737.002 1342.24 742.647 C 1347.98 766.344 1353.74 789.734 1361.38 812.904 C 1349.09 813.971 1336.79 815.12 1324.51 816.354 C 1320.25 802.205 1317.04 787.602 1313.73 773.202 C 1312.12 766.189 1311.02 758.284 1308.41 751.628 C 1307.86 750.225 1306.92 749.178 1305.75 748.265 C 1302.41 748.913 1300.24 748.888 1297.6 751.158 C 1292.63 766.125 1296.34 802.779 1301.12 818.553 C 1286.44 819.733 1271.92 820.947 1257.19 821.282 C 1262.32 781.726 1260.58 742.54 1260.16 702.823 C 1259.89 677.836 1262.28 653.507 1256.3 628.976 C 1275.81 626.167 1295.91 625.146 1315.55 623.412 z"/>
<path transform="translate(0,0)" fill="rgb(2,27,47)" d="M 1296.12 657.252 C 1301.89 656.978 1309.13 655.965 1314.7 657.831 C 1316.81 658.538 1318.15 659.837 1319.07 661.88 C 1324.47 673.863 1321.59 700.18 1316.92 712.04 C 1310.17 714.967 1303.27 715.813 1296 716.368 L 1296.12 657.252 z"/>
<path transform="translate(0,0)" fill="rgb(254,254,254)" d="M 1418.67 613.4 C 1429 611.718 1441.65 612.086 1450.91 617.303 C 1457.43 620.974 1460.77 625.463 1462.75 632.589 C 1464.03 637.182 1464.83 641.898 1465.12 646.658 C 1466.46 668.255 1465.15 690.49 1465.13 712.174 C 1465.11 733.448 1466.56 755.886 1464.59 777.03 C 1464.03 783.054 1462.63 791.375 1459.28 796.538 C 1454.62 803.738 1444.58 808.421 1436.46 810.08 C 1422.58 812.914 1396.22 815.712 1384.2 807.472 C 1373.66 800.242 1371.3 786.056 1369.04 774.392 L 1369.11 761.63 C 1381.24 761.205 1393.38 759.776 1405.49 758.826 C 1406.02 763.594 1406.04 770.227 1409.12 774.086 C 1411.19 776.671 1414.74 778.328 1418.01 778.624 C 1420.55 778.854 1422.98 778.039 1424.79 776.218 C 1433.5 767.486 1430.34 743.272 1430.11 731.6 C 1423.31 734.869 1416.45 737.633 1408.92 738.693 C 1400.03 739.947 1391.15 738.185 1383.94 732.676 C 1376.05 726.65 1372.09 717.817 1370.82 708.17 C 1368.54 690.925 1367.66 642.933 1378.63 629.632 C 1388.42 617.754 1404.22 614.804 1418.67 613.4 z"/>
<path transform="translate(0,0)" fill="rgb(2,27,47)" d="M 1417.02 649.096 C 1421.19 648.938 1425.1 648.541 1428.4 651.537 C 1432.14 661.732 1431.02 690.108 1428.52 701.183 C 1425.93 703.456 1423.74 703.478 1420.47 704.122 C 1416.91 704.268 1413.71 704.483 1410.25 703.422 C 1408.74 702.3 1407.84 701.444 1407.14 699.65 C 1403.18 689.463 1404.29 664.433 1409.22 654.976 C 1411.14 651.299 1413.25 650.379 1417.02 649.096 z"/>
<path transform="translate(0,0)" fill="rgb(254,254,254)" d="M 1540.62 603.453 C 1548.27 602.883 1557.86 605.646 1563.59 610.892 C 1573.44 619.91 1572.49 640.156 1572.82 652.635 C 1573.49 677.362 1578.53 775.768 1563.98 790.654 C 1553.65 801.22 1537.24 803.525 1523.16 803.588 C 1512.31 803.637 1496.9 802.426 1488.82 794.222 C 1478.66 783.914 1477.84 766.843 1478.12 753.238 C 1490.38 752.598 1502.6 751.42 1514.75 749.706 C 1515.08 754.845 1514.74 761.489 1518.38 765.512 C 1520.65 768.014 1524.6 769.884 1527.99 769.854 C 1529.98 769.837 1531.81 768.894 1533.15 767.453 C 1541.23 758.73 1538.28 734.507 1538.14 722.998 C 1529.02 726.254 1519.99 729.289 1510.6 731.701 C 1503.92 729.321 1497.48 726.707 1491.9 722.226 C 1482.72 714.865 1479.72 705.013 1478.47 693.664 C 1476.52 676.038 1475.75 631.726 1487.44 618.149 C 1499.25 604.426 1524.07 604.509 1540.62 603.453 z"/>
<path transform="translate(0,0)" fill="rgb(2,27,47)" d="M 1523.97 639.017 C 1526.57 638.939 1529.74 638.593 1532.24 639.34 C 1533.96 639.852 1535.55 640.827 1536.28 642.539 C 1540 651.236 1538.77 683.299 1535.82 692.282 C 1533.61 694.963 1530.4 695.438 1527.18 696.339 C 1526.74 696.283 1526.3 696.235 1525.86 696.171 C 1522.3 695.659 1518.69 694.677 1516.51 691.623 C 1510.61 683.332 1511.96 663.853 1513.99 654.138 C 1515.5 646.916 1517.77 643.157 1523.97 639.017 z"/>
<path transform="translate(0,0)" fill="rgb(254,254,254)" d="M 700.267 688.494 C 701.781 689.437 702.051 690.693 702.361 692.405 C 703.451 698.421 703.675 704.651 704.719 710.714 L 718.442 786.443 C 724.037 817.766 729.324 848.874 737.055 879.766 C 724.589 881.858 711.801 882.953 699.242 884.449 C 698.646 872.169 696.42 859.962 694.467 847.841 C 683.479 849.698 672.219 850.579 661.16 852.122 L 660.072 862.1 C 658.468 871.485 657.801 881.192 656.762 890.664 C 644.067 892.009 631.386 893.848 618.719 895.451 C 626.24 865.954 629.981 834.833 635.158 804.803 C 640.053 776.411 646.834 747.141 649.153 718.489 C 649.818 710.266 649.245 702.945 648.048 694.84 C 665.443 692.63 682.85 690.515 700.267 688.494 z"/>
<path transform="translate(0,0)" fill="rgb(2,27,47)" d="M 676.504 741.689 C 680.728 745.504 687.239 804.32 688.658 813.582 C 684.825 814.357 680.808 814.723 676.928 815.27 L 666.541 816.31 C 669.742 791.462 673.969 766.594 676.504 741.689 z"/>
<path transform="translate(0,0)" fill="rgb(254,254,254)" d="M 789.526 674.407 C 795.196 673.554 801.431 673.6 807.175 673.368 C 815.823 673.019 824.999 674.403 831.516 680.573 C 839.14 687.792 840.891 699.291 841.173 709.284 C 841.834 732.663 845.952 775.646 829.165 792.971 C 816.506 806.036 798.035 805.942 781.153 806.246 C 780.916 827.441 780.032 848.653 784.388 869.519 L 784.462 870.398 C 780.021 874.458 749.215 877.182 741.494 878.554 C 746.682 843.535 745.125 808.736 745.159 773.5 C 745.19 742.29 747.771 710.09 741.358 679.355 C 757.399 677.246 773.406 675.726 789.526 674.407 z"/>
<path transform="translate(0,0)" fill="rgb(2,27,47)" d="M 781.203 708.504 C 786.648 708.209 793.041 707.367 798.398 708.705 C 800.728 709.288 802.655 710.259 803.892 712.38 C 810.4 723.542 806.535 757.448 803.058 769.925 C 796.062 772.987 788.589 773.239 781.087 773.612 L 781.203 708.504 z"/>
<path transform="translate(0,0)" fill="rgb(35,121,51)" d="M 403.833 581.239 C 404.756 574.145 405.982 567.093 407.509 560.104 C 417.906 511.872 440.823 459.693 466.512 417.39 C 474.955 404.205 484.967 392.26 494.086 379.537 C 541.938 312.78 608.548 256.243 682.351 220.347 C 712.601 205.635 782.036 182.921 815.297 190.214 C 799.321 202.593 783.093 195.366 766.663 204.176 C 771.536 204.734 778.928 204.236 782.188 205.558 C 782.38 207.492 782.634 206.646 781.89 208.241 C 746.204 215.432 704.758 237.594 673.255 255.799 C 589.585 304.15 533.614 357.483 478.248 436.947 C 473.592 444.195 458.37 469.557 453.391 474.184 C 434.206 510.89 418.67 542.999 405.527 582.604 L 403.833 581.239 z"/>
<path transform="translate(0,0)" fill="rgb(19,83,47)" d="M 766.663 204.176 C 771.536 204.734 778.928 204.236 782.188 205.558 C 782.38 207.492 782.634 206.646 781.89 208.241 C 746.204 215.432 704.758 237.594 673.255 255.799 C 589.585 304.15 533.614 357.483 478.248 436.947 L 475.597 433.155 C 509.896 373.875 575.804 311.875 631.055 271.671 C 647.851 259.449 679.781 244.654 698.496 231.644 C 709.751 223.819 752.701 208.019 766.663 204.176 z"/>
<path transform="translate(0,0)" fill="rgb(19,83,47)" d="M 475.597 433.155 L 478.248 436.947 C 473.592 444.195 458.37 469.557 453.391 474.184 C 456.896 459.041 466.837 445.71 475.597 433.155 z"/>
<path transform="translate(0,0)" fill="rgb(254,254,254)" d="M 1239.6 630.483 C 1241.48 630.447 1241.7 630.554 1243.32 631.532 C 1247.4 639.791 1245.12 655.693 1244.85 665.03 C 1227.85 665.353 1210.88 666.448 1193.99 668.314 C 1193.77 682.853 1193.9 697.417 1193.86 711.958 C 1207.26 711.336 1220.55 710.209 1233.9 708.951 C 1233.23 720.287 1233.28 731.398 1233.9 742.734 C 1220.5 742.967 1207.24 744.125 1193.91 745.299 L 1193.92 791.269 C 1210.91 790.872 1227.96 789.219 1244.9 787.874 L 1244.89 819.25 C 1244.86 820.202 1244.46 821.093 1244.17 821.996 C 1233.92 826.88 1170.46 828.766 1154.45 829.307 C 1161.13 799.97 1158.82 769.005 1158.89 739.125 C 1158.97 705.166 1160.66 671.008 1155.18 637.377 C 1183.21 633.95 1211.42 632.249 1239.6 630.483 z"/>
<path transform="translate(0,0)" fill="rgb(247,189,144)" d="M 977.58 373.38 L 978.708 372.337 C 990.419 361.612 1004.13 352.009 1020.65 352.7 C 1029.9 356.371 1032.93 355.091 1042.99 361.277 L 1055 368.673 C 1045.33 371.794 1023 377.667 1012.95 378.698 L 1022.24 385.19 C 1029.4 389.375 1036.61 393.713 1043.96 397.545 L 1045.36 400.029 C 1043.08 404.728 1032.57 408.482 1027.59 409.095 C 1017.05 418.876 1015.18 423.115 1010.18 437.057 C 1009.28 439.563 1008.66 443.323 1007.2 445.312 L 1004.86 451.876 C 1006.93 453.392 1007.54 453.374 1007.7 456.632 C 1008.33 469.046 1009.36 479.031 1013.8 490.896 C 1007.97 491.453 997.702 492.518 992.122 491.746 L 986.098 490.787 C 974.24 487.792 950.223 483.427 943.214 473.558 C 938.524 466.956 940.752 459.478 942.087 451.973 C 941.358 442.062 945.904 428.657 949.856 419.708 L 950.917 415.848 C 954.527 406.657 959.504 397.632 964.682 389.238 C 967.967 382.838 972.49 378.32 977.58 373.38 z"/>
<path transform="translate(0,0)" fill="rgb(247,189,144)" d="M 949.856 419.708 C 953.442 421.741 956.399 423.087 959.199 426.104 C 960.569 427.159 964.003 429.649 965.097 430.695 L 966.038 431.234 L 987.416 443.92 L 993.786 447.179 L 1004.86 451.876 C 1006.93 453.392 1007.54 453.374 1007.7 456.632 C 1008.33 469.046 1009.36 479.031 1013.8 490.896 C 1007.97 491.453 997.702 492.518 992.122 491.746 L 986.098 490.787 C 974.24 487.792 950.223 483.427 943.214 473.558 C 938.524 466.956 940.752 459.478 942.087 451.973 C 941.358 442.062 945.904 428.657 949.856 419.708 z"/>
<path transform="translate(0,0)" fill="rgb(151,129,98)" d="M 987.416 443.92 L 993.786 447.179 L 1004.86 451.876 C 1006.93 453.392 1007.54 453.374 1007.7 456.632 C 1008.33 469.046 1009.36 479.031 1013.8 490.896 C 1007.97 491.453 997.702 492.518 992.122 491.746 L 986.098 490.787 L 988.912 490.259 C 991.476 485.366 989.181 480.413 987.6 474.938 L 986.124 467.987 C 985.713 460.042 986.702 451.867 987.416 443.92 z"/>
<path transform="translate(0,0)" fill="rgb(185,150,113)" d="M 987.416 443.92 L 993.786 447.179 C 994.068 461.008 994.693 476.197 994.516 489.928 C 993.214 491.238 993.728 490.944 992.122 491.746 L 986.098 490.787 L 988.912 490.259 C 991.476 485.366 989.181 480.413 987.6 474.938 L 986.124 467.987 C 985.713 460.042 986.702 451.867 987.416 443.92 z"/>
<path transform="translate(0,0)" fill="rgb(247,189,144)" d="M 966.038 431.234 L 987.416 443.92 C 986.702 451.867 985.713 460.042 986.124 467.987 C 967.694 462.285 952.026 452.223 966.038 431.234 z"/>
<path transform="translate(0,0)" fill="rgb(252,226,174)" d="M 965.097 430.695 L 966.038 431.234 C 952.026 452.223 967.694 462.285 986.124 467.987 L 987.6 474.938 C 981.372 474.432 956.33 461.842 952.434 456.491 C 950.363 448.732 953.199 443.317 955.778 435.783 C 959.588 432.783 960.354 431.983 965.097 430.695 z"/>
<path transform="translate(0,0)" fill="rgb(185,150,113)" d="M 949.856 419.708 C 953.442 421.741 956.399 423.087 959.199 426.104 C 949.207 432.677 945.659 463.086 942.868 473.826 C 942.743 468.489 942.77 456.545 942.087 451.973 C 941.358 442.062 945.904 428.657 949.856 419.708 z"/>
<path transform="translate(0,0)" fill="url(#Gradient4)" d="M 977.58 373.38 L 978.708 372.337 C 990.419 361.612 1004.13 352.009 1020.65 352.7 C 1029.9 356.371 1032.93 355.091 1042.99 361.277 L 1055 368.673 C 1045.33 371.794 1023 377.667 1012.95 378.698 C 1007.45 377.911 1006.94 377.118 1000.27 376.821 C 995.323 373.391 992.974 373.939 987.077 374.29 L 986.972 375.635 L 982.485 377.071 C 979.767 375.782 979.679 375.61 977.58 373.38 z"/>
<path transform="translate(0,0)" fill="rgb(62,68,70)" d="M 977.58 373.38 L 978.708 372.337 C 990.419 361.612 1004.13 352.009 1020.65 352.7 C 1018.64 356.103 1018.83 357.028 1015.67 358.736 C 1004.83 362.682 996.691 368.011 987.077 374.29 L 986.972 375.635 L 982.485 377.071 C 979.767 375.782 979.679 375.61 977.58 373.38 z"/>
<path transform="translate(0,0)" fill="rgb(112,106,95)" d="M 1020.65 352.7 C 1029.9 356.371 1032.93 355.091 1042.99 361.277 C 1034.71 363.023 1024.4 359.541 1015.67 358.736 C 1018.83 357.028 1018.64 356.103 1020.65 352.7 z"/>
<path transform="translate(0,0)" fill="rgb(19,22,23)" d="M 987.077 374.29 C 992.974 373.939 995.323 373.391 1000.27 376.821 C 1006.94 377.118 1007.45 377.911 1012.95 378.698 L 1022.24 385.19 C 1029.4 389.375 1036.61 393.713 1043.96 397.545 L 1045.36 400.029 C 1043.08 404.728 1032.57 408.482 1027.59 409.095 C 1018.04 405.694 1014.8 402.932 1007.07 396.713 C 997.068 390.946 993.52 388.616 985.319 380.914 L 982.485 377.071 L 986.972 375.635 L 987.077 374.29 z"/>
<path transform="translate(0,0)" fill="rgb(112,106,95)" d="M 1022.24 385.19 C 1029.4 389.375 1036.61 393.713 1043.96 397.545 C 1031.47 405.868 1026.48 401.574 1014.96 394.84 C 1017.89 391.742 1019.84 388.698 1022.24 385.19 z"/>
<path transform="translate(0,0)" fill="rgb(151,129,98)" d="M 1000.27 376.821 C 1006.94 377.118 1007.45 377.911 1012.95 378.698 L 1022.24 385.19 C 1019.84 388.698 1017.89 391.742 1014.96 394.84 C 1010.65 393.02 1009.65 392.487 1005.79 389.861 C 1008.76 388.327 1008.13 389.206 1009.26 386.634 C 1007.88 383.027 1003.35 379.583 1000.27 376.821 z"/>
<path transform="translate(0,0)" fill="rgb(252,226,174)" d="M 987.077 374.29 C 992.974 373.939 995.323 373.391 1000.27 376.821 C 1003.35 379.583 1007.88 383.027 1009.26 386.634 C 1008.13 389.206 1008.76 388.327 1005.79 389.861 C 998.797 385.707 993.217 380.802 986.972 375.635 L 987.077 374.29 z"/>
<path transform="translate(0,0)" fill="rgb(151,129,98)" d="M 1007.07 396.713 C 1014.8 402.932 1018.04 405.694 1027.59 409.095 C 1017.05 418.876 1015.18 423.115 1010.18 437.057 C 1009.28 439.563 1008.66 443.323 1007.2 445.312 C 1001.91 443.547 992.454 439.585 987.743 436.85 C 988.587 435.663 996.434 414.392 998.465 410.018 L 1007.07 396.713 z"/>
<path transform="translate(0,0)" fill="rgb(252,226,174)" d="M 961.022 420.81 C 963.549 414.437 967.549 406.596 970.826 400.606 C 978.466 386.637 995.168 400.558 991.827 407.553 C 989.068 407.217 984.5 406.526 981.864 406.363 C 977.194 413.041 973.648 419.639 969.681 426.732 L 961.022 420.81 z"/>
<path transform="translate(0,0)" fill="rgb(19,22,23)" d="M 950.917 415.848 L 958.113 419.067 L 961.022 420.81 L 969.681 426.732 C 975.796 430.329 981.394 433.645 987.743 436.85 C 992.454 439.585 1001.91 443.547 1007.2 445.312 L 1004.86 451.876 L 993.786 447.179 L 987.416 443.92 L 966.038 431.234 L 965.097 430.695 C 964.003 429.649 960.569 427.159 959.199 426.104 C 956.399 423.087 953.442 421.741 949.856 419.708 L 950.917 415.848 z"/>
<path transform="translate(0,0)" fill="rgb(185,150,113)" d="M 964.682 389.238 C 968.183 390.113 970.669 390.497 973.796 392.333 C 966.373 401.221 962.362 408.219 958.113 419.067 L 950.917 415.848 C 954.527 406.657 959.504 397.632 964.682 389.238 z"/>
<path transform="translate(0,0)" fill="rgb(151,129,98)" d="M 977.58 373.38 C 979.679 375.61 979.767 375.782 982.485 377.071 L 985.319 380.914 C 978.532 383.892 977.593 385.987 973.796 392.333 C 970.669 390.497 968.183 390.113 964.682 389.238 C 967.967 382.838 972.49 378.32 977.58 373.38 z"/>
<path transform="translate(0,0)" fill="rgb(35,121,51)" d="M 678.865 306.048 C 690.642 286.856 725.284 252.47 745.3 241.01 C 738.473 267.517 723.587 275.989 708.805 296.433 C 700.177 308.365 686.625 328.086 679.235 340.646 C 662.799 368.39 647.952 397.045 634.768 426.474 C 628.251 440.876 619.096 464.839 612.101 477.485 C 602.48 504.029 594.643 531.135 585.424 557.017 C 583.242 570.918 577.166 602.247 573.124 615.841 C 571.442 608.204 569.396 599.898 568.396 592.194 C 570.345 591.651 570.232 591.638 571.863 590.407 L 571.641 588.173 C 570.262 581.626 572.879 558.725 573.644 551.272 C 585.313 462.096 627.485 378.61 678.865 306.048 z"/>
<path transform="translate(0,0)" fill="rgb(19,83,47)" d="M 678.865 306.048 C 690.642 286.856 725.284 252.47 745.3 241.01 C 738.473 267.517 723.587 275.989 708.805 296.433 C 700.177 308.365 686.625 328.086 679.235 340.646 C 662.799 368.39 647.952 397.045 634.768 426.474 C 628.251 440.876 619.096 464.839 612.101 477.485 C 612.097 477.198 612.081 475.503 612.124 475.206 C 615.709 449.936 631.041 423.364 641.523 400.394 C 646.105 390.353 650.192 376.884 653.991 366.943 C 659.016 353.793 680.021 317.888 678.865 306.048 z"/>
<path transform="translate(0,0)" fill="rgb(19,83,47)" d="M 571.641 588.173 C 575.923 577.35 577.706 565.691 585.424 557.017 C 583.242 570.918 577.166 602.247 573.124 615.841 C 571.442 608.204 569.396 599.898 568.396 592.194 C 570.345 591.651 570.232 591.638 571.863 590.407 L 571.641 588.173 z"/>
<path transform="translate(0,0)" fill="url(#Gradient3)" d="M 664.743 951.914 C 655.983 923.411 675.775 916.592 698.658 914.099 C 705.004 913.407 711.269 912.06 717.845 911.499 C 718.052 921.649 717.514 931.213 719.294 941.219 C 721.154 948.703 723.795 955.971 727.173 962.904 C 731.004 970.406 736.294 980.184 741.837 986.548 L 752.515 995.772 C 753.379 999.385 753.898 1001.68 754.36 1005.45 C 747.155 1005.38 738.466 997.224 725.484 999.276 C 718.226 1000.42 713.803 1003.41 708.788 1004.43 C 706.866 1002.23 705.02 1000.78 702.807 998.903 C 692.51 993.499 692.105 985.693 685.054 978.069 C 679.747 972.331 672.837 976.237 671.866 966.248 C 671.747 961.593 672.981 957.91 671.47 953.721 C 668.625 951.378 669.313 952.138 664.743 951.914 z"/>
<path transform="translate(0,0)" fill="rgb(19,83,47)" d="M 664.743 951.914 C 655.983 923.411 675.775 916.592 698.658 914.099 C 705.004 913.407 711.269 912.06 717.845 911.499 C 718.052 921.649 717.514 931.213 719.294 941.219 C 702.895 940.899 685.529 943.386 675.732 958.445 C 673.019 961.478 672.926 962.272 671.866 966.248 C 671.747 961.593 672.981 957.91 671.47 953.721 C 668.625 951.378 669.313 952.138 664.743 951.914 z"/>
<path transform="translate(0,0)" fill="rgb(24,97,48)" d="M 671.866 966.248 C 672.926 962.272 673.019 961.478 675.732 958.445 C 677.228 972.624 681.838 970.606 693.148 976.319 C 695.749 986.992 695.994 990.117 702.807 998.903 C 692.51 993.499 692.105 985.693 685.054 978.069 C 679.747 972.331 672.837 976.237 671.866 966.248 z"/>
<path transform="translate(0,0)" fill="rgb(138,177,104)" d="M 741.837 986.548 L 740.675 989.874 C 733.396 989.262 727.277 974.632 725.105 968.327 C 724.637 966.968 726.431 964.023 727.173 962.904 C 731.004 970.406 736.294 980.184 741.837 986.548 z"/>
<path transform="translate(0,0)" fill="rgb(247,189,144)" d="M 1041.48 548.673 C 1046.63 546.254 1050.43 544.536 1055.76 542.612 C 1077.54 558.432 1085.63 562.067 1110.54 572.664 C 1105.12 575.751 1093.81 582.359 1088.08 583.905 C 1067.73 592.342 1052.78 595.313 1030.93 597.179 C 1011.25 587.995 992.506 569.392 977.961 553.711 C 1001.36 556.153 1018.96 556.658 1041.48 548.673 z"/>
<path transform="translate(0,0)" fill="rgb(151,129,98)" d="M 1041.48 548.673 C 1046.63 546.254 1050.43 544.536 1055.76 542.612 C 1077.54 558.432 1085.63 562.067 1110.54 572.664 C 1105.12 575.751 1093.81 582.359 1088.08 583.905 C 1068.39 572.48 1057.3 559.281 1041.48 548.673 z"/>
<path transform="translate(0,0)" fill="rgb(247,189,144)" d="M 941.098 480.991 C 946.059 483.847 949.466 485.982 954.139 489.273 C 969.852 495.752 976.943 497.161 993.78 499.933 C 1003.16 499.98 1008.25 500.121 1017.56 497.966 C 1027.71 513.617 1034.85 521.835 1048 535.385 C 1043.04 537.856 1036.66 541.242 1031.24 542.1 C 1008.94 546.715 994.175 548.599 972.235 540.459 C 952.965 530.596 945.841 500.62 941.098 480.991 z"/>
<path transform="translate(0,0)" fill="rgb(151,129,98)" d="M 993.78 499.933 C 1003.16 499.98 1008.25 500.121 1017.56 497.966 C 1027.71 513.617 1034.85 521.835 1048 535.385 C 1043.04 537.856 1036.66 541.242 1031.24 542.1 C 1017.49 529.677 1002.72 516.205 993.78 499.933 z"/>
<path transform="translate(0,0)" fill="rgb(185,150,113)" d="M 941.098 480.991 C 946.059 483.847 949.466 485.982 954.139 489.273 C 950.113 501.556 967.634 529.052 972.235 540.459 C 952.965 530.596 945.841 500.62 941.098 480.991 z"/>
<path transform="translate(0,0)" fill="rgb(35,121,51)" d="M 740.631 907.16 C 751.792 906.766 762.927 905.815 773.993 904.309 C 764.921 929.246 765.28 937.024 766.493 963.168 C 769.572 966.535 772.598 969.951 775.569 973.413 L 776.039 956.717 C 779.222 952.625 780.121 951.759 784.125 948.446 C 790.858 972.281 799.922 988.134 816.488 1006.73 C 802.994 1002.74 774.662 993.135 766.578 981.653 C 763.573 979.178 759.12 974.393 756.238 971.471 C 743.837 961.076 734.374 932.875 737.249 916.821 C 738.357 913.625 739.452 910.319 740.631 907.16 z"/>
<path transform="translate(0,0)" fill="rgb(19,83,47)" d="M 740.631 907.16 C 751.792 906.766 762.927 905.815 773.993 904.309 C 764.921 929.246 765.28 937.024 766.493 963.168 C 756.328 953.566 754.988 932.213 746.238 920.843 C 743.454 917.226 741.795 917.361 737.249 916.821 C 738.357 913.625 739.452 910.319 740.631 907.16 z"/>
<path transform="translate(0,0)" fill="rgb(138,177,104)" d="M 756.238 971.471 L 758.237 968.829 C 762.817 970.288 766.644 977.186 766.578 981.653 C 763.573 979.178 759.12 974.393 756.238 971.471 z"/>
<path transform="translate(0,0)" fill="rgb(247,189,144)" d="M 1114.82 579.178 C 1116.54 578.491 1120.46 576.927 1122.05 577.355 C 1137.31 581.444 1158.92 590.866 1173.57 597.127 C 1179.18 599.527 1184.75 602.027 1190.27 604.628 C 1183.44 605.279 1176.57 606.003 1169.72 606.385 C 1165.42 607.027 1160.34 607.991 1156.09 607.792 C 1127.82 609.356 1095.63 615.69 1068.19 614.025 C 1061.21 613.601 1050.27 607.06 1044.01 603.346 C 1070.31 600.994 1082.93 595.936 1106.23 584.41 L 1114.82 579.178 z"/>
<path transform="translate(0,0)" fill="rgb(185,150,113)" d="M 1114.82 579.178 C 1116.54 578.491 1120.46 576.927 1122.05 577.355 C 1137.31 581.444 1158.92 590.866 1173.57 597.127 C 1179.18 599.527 1184.75 602.027 1190.27 604.628 C 1183.44 605.279 1176.57 606.003 1169.72 606.385 C 1165.42 607.027 1160.34 607.991 1156.09 607.792 C 1153.24 604.756 1149.07 604.528 1145.14 603.139 C 1131.39 598.288 1118.88 591.602 1106.23 584.41 L 1114.82 579.178 z"/>
<path transform="translate(0,0)" fill="rgb(151,129,98)" d="M 1106.23 584.41 L 1114.82 579.178 L 1115.66 581.745 C 1126.2 586.199 1136.14 591.245 1146.47 596.198 C 1151.26 598.496 1166.43 604.184 1169.72 606.385 C 1165.42 607.027 1160.34 607.991 1156.09 607.792 C 1153.24 604.756 1149.07 604.528 1145.14 603.139 C 1131.39 598.288 1118.88 591.602 1106.23 584.41 z"/>
<path transform="translate(0,0)" fill="rgb(19,83,47)" d="M 1385.35 579.398 C 1403.24 576.185 1420.87 582.247 1436.92 589.549 C 1428.12 589.412 1419.19 589.474 1410.5 590.969 C 1389.68 594.549 1382.04 599.491 1358.75 598.979 C 1341.09 598.13 1323.03 595.526 1305.51 593.034 C 1331.35 585.927 1358.75 582.342 1385.35 579.398 z"/>
<path transform="translate(0,0)" fill="rgb(19,83,47)" d="M 823.215 985 C 823.095 981.514 822.549 979.071 824.395 976.271 C 829.767 975.479 836.843 981.754 842.222 984.289 C 868.321 996.591 893.117 1002.03 921.708 1003.46 L 920.416 1003.51 C 909.581 1004.02 895.635 1007.49 884.463 1009.02 C 871.639 1010.88 847.914 1011.31 835.448 1008.73 C 829.253 1000.9 825.816 994.549 823.215 985 z"/>
<path transform="translate(0,0)" fill="rgb(35,121,51)" d="M 823.215 985 C 829.347 983.866 861.104 1002.11 870.131 1003.57 C 871.77 1003.84 882.87 1008.01 884.463 1009.02 C 871.639 1010.88 847.914 1011.31 835.448 1008.73 C 829.253 1000.9 825.816 994.549 823.215 985 z"/>
<path transform="translate(0,0)" fill="rgb(158,16,38)" d="M 1209.46 430.444 C 1224.96 422.672 1229.03 422.4 1246.43 421.946 C 1248.89 437.949 1259.38 458.027 1259.15 467.308 C 1252.54 467.552 1245.75 467.719 1239.16 468.121 C 1229.59 449.513 1224.48 444.819 1209.46 430.444 z"/>
<path transform="translate(0,0)" fill="rgb(35,121,51)" d="M 1134.76 184.654 C 1153.02 209.23 1181.95 242.289 1203.72 263.604 C 1195.42 260.741 1165.86 249.181 1160.77 242.965 C 1151.19 235.85 1145.67 222.042 1142.27 211.046 C 1139.22 201.696 1137.12 194.211 1134.76 184.654 z"/>
<path transform="translate(0,0)" fill="rgb(62,137,64)" d="M 1142.27 211.046 L 1144.53 210.798 C 1147.98 214.608 1160.45 235.799 1161.56 240.848 L 1160.77 242.965 C 1151.19 235.85 1145.67 222.042 1142.27 211.046 z"/>
<path transform="translate(0,0)" fill="url(#Gradient2)" d="M 1286.86 515.361 C 1293.07 510.547 1295.95 509.549 1303.52 507.352 C 1301.01 512.157 1297.36 519.701 1294.54 524.074 C 1292.37 527.657 1290.51 530.873 1287.93 534.194 C 1279.78 543.578 1268.27 551.56 1256.22 554.764 C 1256.89 550.766 1256.25 544.511 1255.98 540.249 L 1255.97 536.506 L 1255.77 531.507 C 1258.87 527.013 1258.78 525.961 1259.13 520.484 C 1265.98 517.69 1269.66 519.722 1275.81 522.741 C 1280.55 520.082 1282.54 518.687 1286.86 515.361 z"/>
<path transform="translate(0,0)" fill="rgb(19,83,47)" d="M 1255.97 536.506 C 1256.55 534.527 1256.77 533.146 1258.03 531.505 C 1261.28 533.902 1261.5 535.829 1261.53 539.708 L 1261.61 545.411 C 1267.53 546.696 1277.29 535.466 1286.86 534.313 L 1287.93 534.194 C 1279.78 543.578 1268.27 551.56 1256.22 554.764 C 1256.89 550.766 1256.25 544.511 1255.98 540.249 L 1255.97 536.506 z"/>
<path transform="translate(0,0)" fill="rgb(62,137,64)" d="M 1286.86 515.361 C 1293.07 510.547 1295.95 509.549 1303.52 507.352 C 1301.01 512.157 1297.36 519.701 1294.54 524.074 C 1292.72 521.297 1289.26 517.819 1286.86 515.361 z"/>
<path transform="translate(0,0)" fill="rgb(221,22,119)" d="M 1239.16 468.121 C 1245.75 467.719 1252.54 467.552 1259.15 467.308 C 1256.59 481.509 1258.02 484.958 1263.56 497.907 C 1270.19 502.465 1279.86 508.486 1285.92 513.08 C 1280.08 511.92 1275.19 511.1 1269.24 510.49 C 1264.27 509.981 1251.15 511.849 1248.34 509.738 L 1247.7 507.055 C 1247.22 491.729 1244.52 482.349 1239.16 468.121 z"/>
<path transform="translate(0,0)" fill="rgb(251,217,242)" d="M 1247.7 507.055 C 1247.54 501.738 1246.2 497.46 1250.78 494.283 C 1254.7 494.009 1259.7 496.413 1263.56 497.907 C 1270.19 502.465 1279.86 508.486 1285.92 513.08 C 1280.08 511.92 1275.19 511.1 1269.24 510.49 C 1264.27 509.981 1251.15 511.849 1248.34 509.738 L 1247.7 507.055 z"/>
<path transform="translate(0,0)" fill="rgb(17,64,47)" d="M 1000.6 243.548 C 1017.08 245.332 1028.02 252.498 1040.73 261.966 C 1031.77 262.258 1022.58 261.969 1013.6 261.815 C 1009.34 255.676 1005.01 249.587 1000.6 243.548 z"/>
<path transform="translate(0,0)" fill="url(#Gradient1)" d="M 1464.8 858.015 C 1465.49 858.186 1465.32 858.128 1466.13 858.423 C 1480.32 863.531 1495.3 882.344 1501.6 895.388 C 1492.33 892.112 1472.13 866.707 1464.8 858.015 z"/>
<path transform="translate(0,0)" fill="rgb(7,43,46)" d="M 1089.14 291.068 C 1093.51 293.26 1107.15 301.112 1108.47 305.473 L 1106.15 306.336 C 1099.98 305.608 1083.05 304.324 1083.3 295.922 C 1086 294.384 1086.43 293.943 1088.59 291.664 L 1089.14 291.068 z"/>
<path transform="translate(0,0)" fill="rgb(7,43,46)" d="M 889.853 361.782 C 884.135 372.24 878.796 387.366 872.644 395.578 L 867.224 391.308 C 872.549 381.919 882.033 369.125 889.853 361.782 z"/>
<path transform="translate(0,0)" fill="rgb(17,64,47)" d="M 723.562 660.108 C 725.196 660.296 725.067 660.497 726.197 661.561 C 726.295 664.535 726.436 667.96 725.259 670.764 C 724.308 673.028 723.566 673.686 721.342 674.471 L 718.525 672.031 C 714.847 670.026 711.284 667.823 707.7 665.657 C 713.041 663.319 717.803 661.236 723.562 660.108 z"/>
<path transform="translate(0,0)" fill="rgb(7,26,41)" d="M 872.644 395.578 C 869.233 399.214 865.277 402.364 860.254 403.336 L 859.396 402.003 C 860.058 398.61 864.512 394.854 867.224 391.308 L 872.644 395.578 z"/>
<path transform="translate(0,0)" fill="rgb(7,43,46)" d="M 403.833 581.239 L 405.527 582.604 C 404.966 586.56 404.795 589.22 403.098 592.906 L 402.384 592.581 C 401.967 588.345 402.895 585.378 403.833 581.239 z"/>
<path transform="translate(0,0)" fill="rgb(7,26,41)" d="M 1326.8 952.367 C 1341.53 950.639 1356.36 954.757 1368.09 963.835 C 1376.4 970.395 1380.79 980.981 1381.9 991.293 C 1382.91 1000.54 1381.3 1009.34 1375.25 1016.64 C 1345.34 1052.76 1257.65 1046.73 1214.8 1051.1 C 1197.83 1053.1 1180.34 1056.08 1163.24 1056.13 C 1205.64 1015.19 1266.78 960.4 1326.8 952.367 z M 1249.25 1046.11 C 1260.63 1046.4 1272.04 1045.13 1283.37 1044.2 C 1312.8 1041.78 1348.71 1039.16 1371.3 1017.61 C 1377.79 1011.41 1379.35 1004.92 1379.46 996.225 C 1379.56 987.604 1377.63 980.172 1371.42 973.92 C 1361.58 964.027 1346.12 960.667 1332.65 960.812 C 1330.18 960.838 1327.71 960.885 1325.25 961.138 C 1291.83 969.671 1256.71 984.441 1229.91 1006.57 C 1223.57 1011.81 1218.25 1018.02 1212.15 1023.52 C 1207.05 1028.11 1198.32 1032 1194.7 1037.76 C 1193.29 1040.01 1192.51 1041.92 1192.96 1044.55 C 1198.2 1047.92 1239.91 1045.84 1249.25 1046.11 z"/>
<path transform="translate(0,0)" fill="rgb(2,27,47)" d="M 1054.96 442.486 C 1062.79 446.173 1073.77 459.121 1082.15 463.687 C 1105.84 474.994 1124.71 472.182 1151.49 478.208 C 1163.15 480.833 1195.99 488.654 1189.83 512.55 C 1188.73 516.832 1171.75 525.924 1166.63 528.896 C 1181.74 539.778 1192.87 542.424 1205.32 558.942 C 1206.53 564.366 1206.4 568.987 1201.74 572.563 C 1194.54 574.915 1170.3 561.908 1162.43 558.155 C 1112.64 534.408 1021.58 518.313 1054.96 442.486 z"/>
<path transform="translate(0,0)" fill="rgb(2,27,47)" d="M 674.587 613.352 C 683.006 612.461 691.197 613.633 699.503 614.862 C 689.249 619.881 678.681 624.695 669.071 630.886 C 649.398 643.56 631.677 658.632 609.508 666.903 C 604.482 666.57 599.52 666.12 594.587 665.056 C 591.395 664.367 588.353 663.596 586.481 660.722 C 586.731 658.488 587.308 657.146 588.682 655.351 C 609.414 628.281 642.16 617.72 674.587 613.352 z"/>
</svg>