<svg version="1.1" xmlns="http://www.w3.org/2000/svg" style="display: block;" viewBox="0 0 2048 1364" width="1024" height="682" preserveAspectRatio="none">
<defs>
	<linearGradient id="Gradient1" gradientUnits="userSpaceOnUse" x1="864.757" y1="1000.85" x2="872.318" y2="984.353">
		<stop class="stop0" offset="0" stop-opacity="1" stop-color="rgb(21,89,44)"/>
		<stop class="stop1" offset="1" stop-opacity="1" stop-color="rgb(25,66,63)"/>
	</linearGradient>
	<linearGradient id="Gradient2" gradientUnits="userSpaceOnUse" x1="710.87" y1="942.011" x2="716.495" y2="1007.07">
		<stop class="stop0" offset="0" stop-opacity="1" stop-color="rgb(33,119,48)"/>
		<stop class="stop1" offset="1" stop-opacity="1" stop-color="rgb(64,142,58)"/>
	</linearGradient>
	<linearGradient id="Gradient3" gradientUnits="userSpaceOnUse" x1="1016.79" y1="390.696" x2="1038.61" y2="398.146">
		<stop class="stop0" offset="0" stop-opacity="1" stop-color="rgb(134,125,99)"/>
		<stop class="stop1" offset="1" stop-opacity="1" stop-color="rgb(108,106,102)"/>
	</linearGradient>
	<linearGradient id="Gradient4" gradientUnits="userSpaceOnUse" x1="1069.1" y1="453.389" x2="732.968" y2="372.494">
		<stop class="stop0" offset="0" stop-opacity="1" stop-color="rgb(19,76,47)"/>
		<stop class="stop1" offset="1" stop-opacity="1" stop-color="rgb(33,119,49)"/>
	</linearGradient>
	<linearGradient id="Gradient5" gradientUnits="userSpaceOnUse" x1="1256.97" y1="543.453" x2="1259.49" y2="515.599">
		<stop class="stop0" offset="0" stop-opacity="1" stop-color="rgb(25,103,46)"/>
		<stop class="stop1" offset="1" stop-opacity="1" stop-color="rgb(41,129,55)"/>
	</linearGradient>
</defs>
<path transform="translate(0,0)" fill="rgb(3,28,49)" d="M 0 0 L 2048 0 L 2048 1364 L 0 1364 L 0 0 z"/>
<path transform="translate(0,0)" fill="rgb(248,190,145)" d="M 1056.5 83.1861 C 1136.31 95.8935 1160.36 175.958 1210.13 226.659 C 1222.57 239.333 1246.54 252.921 1261.23 263.864 C 1268.47 269.251 1285.5 284.626 1292.03 287.602 C 1303.15 292.674 1317.25 295.881 1329.48 301.503 C 1334.12 315.317 1339.49 333.003 1346.57 345.702 C 1349.96 345.089 1354.65 341.282 1357.73 339.115 C 1363.66 340.056 1362.93 340.312 1368.43 338.394 L 1370.66 337.613 C 1379.93 340.643 1396.83 366.773 1402.89 376.059 C 1427.15 413.263 1403.89 454.963 1371.26 477.028 C 1359.66 484.87 1344.02 480.999 1330.96 477.165 C 1340.98 513.659 1325.23 532.602 1304.91 560.277 C 1348.79 555.22 1400.81 541.055 1444.44 554.511 C 1453.19 557.213 1463.59 564.292 1471.24 569.561 C 1502.76 556.043 1558.75 553.053 1586.73 575.359 C 1621.92 603.403 1615.26 651.415 1615.75 691.103 C 1616.86 780.489 1622.97 838.202 1515.43 848.403 C 1531.64 867.244 1543.86 889.176 1551.36 912.874 C 1560.61 943.112 1559.39 967.328 1544.52 995.376 C 1542.77 990.838 1540.16 986.224 1537.86 981.901 C 1528.19 1010.84 1532.05 1031.79 1512.12 1060.74 C 1462.48 1132.87 1391.23 1153.88 1306.8 1150.67 C 1267.23 1149.12 1225.46 1144.09 1186.25 1151.49 C 1150.27 1158.28 1095.69 1185.38 1104.56 1229.51 C 1109.28 1252.94 1140.04 1269.42 1158.85 1281.62 C 1120.9 1285.46 1094.92 1284.31 1060.4 1264.32 C 1045.91 1255.93 1033.38 1240.29 1030.21 1223.71 C 1022.08 1181.17 1032.13 1157.61 1053.47 1123.63 C 1040.87 1128.84 1019.38 1138.32 1006.74 1141.64 C 964.718 1152.66 920.799 1155.19 877.906 1158.08 C 880.678 1166.25 892.345 1163.57 896.822 1173.61 C 896.816 1175.58 897.165 1176.26 896.285 1177.66 C 892.963 1178.17 888.253 1178.75 884.995 1178.66 C 820.079 1176.78 764.838 1160.62 711.212 1123.41 C 694.809 1112.02 679.984 1103.66 665.097 1089.07 C 651.923 1076.16 642.581 1061.83 629.72 1048.74 C 629.774 1064.25 632.495 1073.14 636.972 1087.55 C 610.448 1064.96 594.885 1046.7 580.568 1014.2 C 569.872 989.909 568.068 974.016 563.839 948.21 C 550.785 948.988 537.568 952.003 524.706 954.274 C 496.975 959.171 470.9 965.108 443.873 973.064 C 452.373 950.229 474.95 923.807 480.086 902.778 C 483.449 889.007 486 749.496 481.772 736.82 C 474.916 716.267 457.799 699.195 447.26 680.381 C 473.712 678.363 499.688 676.926 525.764 671.933 C 531.595 670.817 541.724 669.955 546.732 667.948 C 548.783 660.748 544.801 642.508 543.277 634.24 C 538.836 610.161 539.1 584.612 521.657 566.094 C 505.738 565.395 482.667 575.206 470.174 584.92 C 436.733 610.923 409.196 649.02 388.467 685.655 C 380.881 699.063 373.998 715.502 367.484 729.588 C 364.968 684.88 362.007 644.458 367.919 599.101 C 376.532 533.027 407.326 445.299 443.834 389.1 C 473.009 344.19 526.424 287.352 567.884 253.443 C 586.679 238.072 615.658 220.021 636.634 207.51 C 702.453 168.254 769.307 147.748 846.437 156.299 C 863.98 158.244 882.012 159.79 899.559 163.24 C 910.179 165.328 922.679 170.412 933.152 171.545 L 934.368 171.666 C 916.101 180.891 895.207 184.869 877.939 193.964 C 870.183 198.049 844.028 222.85 838.778 230.295 C 825.131 249.646 814.908 280.576 809.552 303.512 C 801.424 338.313 795.436 384.678 815.039 416.613 C 830.833 386.365 846.607 362.337 870.449 337.891 C 857.635 338.533 848.286 340.259 835.8 342.807 C 854.046 303.896 897.368 280.199 934.884 263.111 C 939.579 260.973 955.875 257.306 957.608 254.371 L 956.129 252.307 C 945.588 246.321 923.196 245.154 910.428 244.063 C 937.858 217.448 974.524 211.908 1010.97 206.771 C 999.858 168.603 981.518 145.594 947.01 125.456 C 944.808 124.171 933.049 117.686 932.156 116.299 C 939.642 113.941 951.263 115.098 959.266 115.604 C 1015.79 119.177 1054.07 162.213 1099.44 188.957 C 1089.64 135.922 1084.68 126.75 1056.5 83.1861 z"/>
<path transform="translate(0,0)" fill="rgb(78,80,81)" d="M 896.285 1177.66 C 890.586 1173.28 871.033 1166.95 871.307 1159.31 C 874.407 1157.52 873.795 1158.12 877.906 1158.08 C 880.678 1166.25 892.345 1163.57 896.822 1173.61 C 896.816 1175.58 897.165 1176.26 896.285 1177.66 z"/>
<path transform="translate(0,0)" fill="rgb(3,28,49)" d="M 1089.67 109.312 C 1129.56 131.541 1157.74 191.697 1189.4 225.495 C 1210.01 247.496 1226.28 258.756 1253.03 273.359 C 1255.01 274.552 1266.51 284.824 1268.08 286.714 C 1282.59 304.133 1316.73 301.753 1321.84 326.034 C 1324.61 339.188 1327.41 363.077 1345.91 361.068 C 1351.14 360.352 1359.1 354.973 1362.95 350.863 C 1381.65 367.295 1397.24 379.748 1398.57 406.883 C 1400.26 441.616 1370.57 474.89 1334.33 465.489 C 1334.77 456.293 1334.24 448.813 1333.45 439.633 C 1329.88 440.623 1323.22 442.352 1319.97 443.772 C 1315.02 445.936 1308.03 452.836 1302.73 453.913 C 1299.8 450.916 1303.91 441.665 1305.23 437.783 C 1298.17 431.459 1283.91 420.379 1275.19 421.911 C 1255.18 425.425 1269.72 456.607 1280.39 463.131 C 1291.73 470.058 1297.69 470.962 1309.49 469.08 C 1311.42 468.768 1313.34 468.418 1315.25 468.031 C 1304.47 480.663 1296.69 485.384 1280.21 478.255 C 1278.17 480.433 1275.57 483.005 1273.95 485.429 C 1288.03 500.83 1303.55 493.194 1319.34 485.265 C 1319.52 497.978 1317.2 510.604 1312.51 522.421 C 1292.91 570.989 1254.04 569.292 1216.07 585.135 C 1230.39 552.566 1217.17 546.31 1194.33 525.85 C 1200.54 514.013 1208.53 498.118 1196.94 486.224 C 1159.78 448.081 1113.41 481.39 1077.74 436.982 C 1084.56 437.043 1095.2 438.314 1099.31 432.174 L 1098.52 429.769 C 1087.1 418.582 1060.99 419.495 1046.74 424.273 L 1048.64 426.683 C 1048.42 428.237 1045.84 433.086 1044.76 434.541 C 1038.03 443.586 1036.41 464.919 1029.05 471.955 C 1029.96 475.067 1030.93 478.159 1031.97 481.229 C 1049.31 531.546 1116.53 557.622 1161.15 572.656 C 1177.58 578.191 1199.45 590.743 1215.61 598.627 C 1243.89 592.101 1273.25 581.736 1302.43 575.678 C 1343.27 567.203 1395.68 555.407 1436.65 568.568 C 1444.92 571.227 1461.13 582.002 1469.04 587.074 C 1496.81 575.498 1532.28 566.477 1561.95 576.739 C 1611.81 593.982 1599.86 659.259 1600.93 700.038 C 1602.28 751.491 1611.41 819.361 1543.08 829.572 C 1521.14 833.044 1508.14 834.823 1486.3 826.788 C 1485.07 830.088 1483.58 833.523 1482.23 836.793 C 1486.43 840.507 1490.55 844.314 1494.58 848.21 C 1529.29 881.615 1543.08 916.986 1544.06 964.89 C 1535.94 944.002 1524.04 928.949 1506.76 914.875 C 1512.42 929.565 1518.75 945.894 1520.4 961.583 C 1524.53 1000.94 1510.76 1040.53 1486.09 1071.01 C 1470.25 1090.57 1457.34 1099.55 1436.36 1111.64 C 1361.3 1154.89 1281.47 1127.59 1201.15 1135.01 C 1165.92 1139.52 1127.77 1152.07 1104.74 1180.62 C 1100.18 1186.27 1095.6 1194.11 1093.58 1200.82 C 1090.48 1211.14 1089.13 1223.17 1090.16 1233.77 C 1091.86 1251.24 1105.01 1260.6 1117.55 1270.45 C 1113.41 1269.58 1109.28 1268.63 1105.17 1267.62 C 1084.74 1262.43 1061.72 1254.27 1050.42 1235.04 C 1038.69 1215.08 1040.51 1192.11 1046.09 1170.62 C 1053.8 1140.95 1065.85 1127.75 1088.45 1109.63 C 1151.59 1057.92 1233.75 1067.06 1309.45 1058.11 C 1341.98 1054.26 1387.58 1042.55 1396.62 1005.77 C 1399.9 992.431 1397.65 978.337 1390.38 966.686 C 1382.42 953.902 1368.72 944.153 1354.06 941.2 C 1280.81 926.449 1217.88 990.799 1167.44 1032.09 C 1147.32 1048.42 1126.26 1063.55 1104.36 1077.4 C 1032.2 1122.12 953.606 1149.59 867.359 1143.33 C 845.405 1141.74 826.212 1136.86 804.896 1131.88 C 817.264 1142.17 831.545 1149.61 844 1159.94 C 765.548 1151.64 683.648 1100.15 639.533 1034.79 C 631.682 1023.16 625.029 1004.99 619.682 991.809 C 614.642 1015.03 615.359 1029.16 617.334 1052.62 C 594.033 1017.29 577.162 976.275 577.94 933.533 C 542.271 939.399 505.307 946.663 469.881 951.9 C 476.78 933.527 490.949 914.916 493.162 895.273 C 494.993 879.03 495.835 737.652 492.359 726.659 C 488.627 714.853 475.976 701.881 468.271 692.264 C 504.084 685.313 543.887 686.075 580.138 679.905 C 588.05 678.869 602.968 682.242 610.156 679.055 C 657.305 658.151 688.358 631.217 739.449 616.994 C 736.607 615.477 733.733 614.021 730.829 612.626 C 682.114 589.357 614.679 601.04 579.847 643.486 C 572.716 652.177 567.928 662.717 563.113 672.808 C 556.767 643.05 554.048 580.269 529.993 557.271 C 525.403 552.882 510.802 552.875 504.434 554.488 C 446.048 569.282 409.722 628.567 379.264 673.248 C 369.7 596.298 408.493 472.924 449.442 406.678 C 496.184 331.058 572.132 257.956 649.16 214.012 C 717.768 174.872 814.454 153.638 892.222 175.604 C 861.669 187.187 849.016 192.31 829.176 219.39 C 784.4 280.508 778.759 361.153 804.386 431.187 C 814.065 457.636 827.593 481.584 850.76 498.347 C 851.201 478.441 854.812 449.267 859.726 430.097 C 854.87 430.119 851.206 429.938 846.358 429.57 C 839.771 434.428 833.65 439.889 828.075 445.881 C 827.277 398.809 868.785 356.174 903.3 328.652 C 899.14 326.574 893.675 324.03 889.852 321.625 C 881.163 322.25 874.291 322.788 865.571 322.521 C 894.781 298.925 925.165 278.44 961.741 268.057 C 966.946 266.579 980.691 264.616 980.834 258.75 C 981.156 245.568 958.713 238.758 948.822 234.909 C 977.251 220.682 1004.08 219.808 1035.28 223.828 C 1014.09 182.67 1013.6 168.968 982.292 134.309 C 1018.91 144.227 1037.65 162.065 1066.38 185.497 C 1083.47 199.427 1107.24 220.599 1127.14 228.861 C 1124.32 221.682 1118.59 208.734 1117 202.211 C 1113.04 185.951 1109.49 170.366 1105.16 154.133 C 1100.99 138.497 1094.05 123.982 1089.67 109.312 z"/>
<path transform="translate(0,0)" fill="rgb(161,137,107)" d="M 1046.74 424.273 L 1048.64 426.683 C 1048.42 428.237 1045.84 433.086 1044.76 434.541 C 1038.03 443.586 1036.41 464.919 1029.05 471.955 C 1026.52 450.5 1027.56 436.275 1046.74 424.273 z"/>
<path transform="translate(0,0)" fill="rgb(161,137,107)" d="M 862.52 418.709 L 859.726 430.097 C 854.87 430.119 851.206 429.938 846.358 429.57 C 852.537 424.888 855.891 422.676 862.52 418.709 z"/>
<path transform="translate(0,0)" fill="rgb(161,137,107)" d="M 1266.88 470.342 C 1272.31 473.148 1275.18 474.807 1280.21 478.255 C 1278.17 480.433 1275.57 483.005 1273.95 485.429 C 1271.22 480.257 1269.2 475.67 1266.88 470.342 z"/>
<path transform="translate(0,0)" fill="rgb(25,98,47)" d="M 1291.43 856.029 C 1312.12 854.77 1333.5 849.838 1354.4 849.236 C 1372.65 848.71 1392.54 844.16 1410.46 848.168 C 1421.56 850.65 1434.07 860.06 1442.57 867.534 C 1467.56 888.596 1488.59 921.496 1490.23 954.791 C 1491.95 989.536 1477.97 1037.02 1454.48 1062.98 C 1359.69 1167.73 1192.44 1060.09 1094.97 1162.96 C 1075.44 1183.57 1070.27 1205.15 1074.55 1232.81 L 1073.8 1231.82 C 1045.32 1193.86 1072.5 1145.5 1106.84 1122.69 C 1141.65 1099.57 1176.77 1088.39 1218.45 1083.57 C 1289.65 1074.83 1398.43 1091.47 1426.91 1004.01 C 1428.05 999.022 1434.47 991.969 1434.9 987.205 C 1436.51 969.588 1425.85 945.258 1414.54 932.243 C 1377.41 889.5 1308.67 907.856 1266.08 931.103 C 1217.63 957.425 1174.23 993.338 1130.37 1026.5 C 1036.29 1097.61 928.378 1133.91 810.999 1104.54 C 732.49 1084.91 654.971 1041.44 634 956.385 C 631.785 947.403 631.896 936.355 632.006 927.084 C 640.254 925.844 648.53 924.797 656.828 923.946 L 652.258 935.168 C 653.79 942.704 654.218 946.597 654.786 954.124 C 658.37 960.157 661.229 965.49 666.034 970.671 C 666.099 964.878 665.542 958.72 665.137 952.91 C 669.474 952.331 668.644 951.728 671.488 953.553 C 672.545 956.757 672.078 960.183 671.927 963.631 C 672.114 969.775 671.139 970.358 677.088 973.425 C 687.194 975.201 688.878 985.748 697.909 992.122 C 700.881 998.145 702.993 999.137 708.333 1003.36 C 714.401 1004.65 719.252 1001.14 725.228 998.324 C 735.935 999.206 750.779 1005.98 753.875 1005.23 C 754.928 1002.22 753.354 999.241 752.248 995.996 C 765.784 1003.17 779.711 1014.14 794.844 1019.13 C 863.598 1041.78 941.83 1023.53 1005.05 995.24 C 1010.55 991.133 1037.13 978.104 1044.93 974.153 C 1068.31 962.316 1089.87 950.605 1112.22 936.597 C 1145.68 915.623 1175.17 884.553 1210.02 866.942 C 1219.13 862.339 1250.16 859.877 1262.25 858.615 C 1264.16 857.307 1287.62 855.944 1291.43 856.029 z"/>
<path transform="translate(0,0)" fill="rgb(36,122,50)" d="M 1005.05 995.24 L 1007.48 997.408 C 1003.84 1016.27 962.908 1037.45 946.915 1045.78 C 942.299 1048.18 919.374 1049.04 912.312 1050.01 C 895.09 1052.38 874.156 1057.89 857.008 1054.64 C 837.439 1050.94 817.538 1036.88 797.723 1048.67 C 795.819 1049.79 795.22 1050.55 794.172 1052.38 C 794.351 1052.75 796.219 1053.96 796.707 1054.31 C 818.956 1048.85 848.618 1051.53 858.58 1077.4 C 859.719 1080.36 859.256 1083.74 857.601 1086.39 C 848.842 1088.02 839.752 1078.96 831.901 1077.48 C 817.241 1074.71 791.077 1081.3 777.942 1074.53 L 776.402 1072.44 C 777.748 1068.77 783.383 1065.93 787.051 1065.16 C 789.198 1063.65 791.449 1062.25 791.601 1059.33 C 792.682 1038.53 780.087 1033.18 761.651 1032.16 C 744.618 1013.95 738.914 1003.14 713.111 1011.63 C 711.584 1008.84 709.991 1006.08 708.333 1003.36 C 714.401 1004.65 719.252 1001.14 725.228 998.324 C 735.935 999.206 750.779 1005.98 753.875 1005.23 C 754.928 1002.22 753.354 999.241 752.248 995.996 C 765.784 1003.17 779.711 1014.14 794.844 1019.13 C 863.598 1041.78 941.83 1023.53 1005.05 995.24 z"/>
<path transform="translate(0,0)" fill="rgb(36,122,50)" d="M 665.137 952.91 C 669.474 952.331 668.644 951.728 671.488 953.553 C 672.545 956.757 672.078 960.183 671.927 963.631 C 672.114 969.775 671.139 970.358 677.088 973.425 C 687.194 975.201 688.878 985.748 697.909 992.122 C 700.881 998.145 702.993 999.137 708.333 1003.36 C 709.991 1006.08 711.584 1008.84 713.111 1011.63 C 738.914 1003.14 744.618 1013.95 761.651 1032.16 C 780.087 1033.18 792.682 1038.53 791.601 1059.33 C 791.449 1062.25 789.198 1063.65 787.051 1065.16 C 785.552 1062.66 785.927 1063.97 785.846 1061.08 C 783.95 1065.26 780.94 1066.49 776.37 1067.65 C 754.687 1073.15 726.819 1053.36 711.174 1039.88 C 705.648 1035.12 707.316 1028.96 698.07 1023.7 C 694.338 1024.77 691.208 1024.57 687.326 1024.62 C 683.869 1019.12 682.093 1015.44 680.861 1009.13 C 680.241 993.894 688.306 985.347 670.835 980.346 C 668.417 979.654 664.24 977.055 662.088 975.663 L 660.99 974.944 L 661.192 973.87 C 657.355 967.268 655.361 961.686 654.786 954.124 C 658.37 960.157 661.229 965.49 666.034 970.671 C 666.099 964.878 665.542 958.72 665.137 952.91 z"/>
<path transform="translate(0,0)" fill="rgb(20,84,46)" d="M 665.137 952.91 C 669.474 952.331 668.644 951.728 671.488 953.553 C 672.545 956.757 672.078 960.183 671.927 963.631 C 672.114 969.775 671.139 970.358 677.088 973.425 C 687.194 975.201 688.878 985.748 697.909 992.122 C 700.881 998.145 702.993 999.137 708.333 1003.36 C 709.991 1006.08 711.584 1008.84 713.111 1011.63 C 738.914 1003.14 744.618 1013.95 761.651 1032.16 C 780.087 1033.18 792.682 1038.53 791.601 1059.33 C 791.449 1062.25 789.198 1063.65 787.051 1065.16 C 785.552 1062.66 785.927 1063.97 785.846 1061.08 L 779.62 1044.91 L 764.092 1040.94 C 757.846 1046.92 751.898 1053.16 742.712 1053.48 C 738.147 1053.63 734.121 1052.87 733.992 1047.82 C 738.218 1043.05 742.909 1044.74 748.983 1045.19 C 751.506 1043.27 753.612 1041.31 755.957 1039.19 C 740.825 1010.15 730.6 1014.58 704.912 1025.01 C 704.82 1020.98 705.233 1017.29 705.597 1013.29 C 701.494 1008.93 699.516 1005.39 693.171 1005.95 C 685.889 1011.36 693.717 1019.24 698.07 1023.7 C 694.338 1024.77 691.208 1024.57 687.326 1024.62 C 683.869 1019.12 682.093 1015.44 680.861 1009.13 C 680.241 993.894 688.306 985.347 670.835 980.346 C 668.417 979.654 664.24 977.055 662.088 975.663 L 660.99 974.944 L 661.192 973.87 C 657.355 967.268 655.361 961.686 654.786 954.124 C 658.37 960.157 661.229 965.49 666.034 970.671 C 666.099 964.878 665.542 958.72 665.137 952.91 z"/>
<path transform="translate(0,0)" fill="rgb(16,68,50)" d="M 665.137 952.91 C 669.474 952.331 668.644 951.728 671.488 953.553 C 672.545 956.757 672.078 960.183 671.927 963.631 C 672.114 969.775 671.139 970.358 677.088 973.425 C 669.859 972.537 664.645 978.489 661.408 968.165 L 661.177 968.273 C 661.043 971.142 661.908 970.402 661.192 973.87 C 657.355 967.268 655.361 961.686 654.786 954.124 C 658.37 960.157 661.229 965.49 666.034 970.671 C 666.099 964.878 665.542 958.72 665.137 952.91 z"/>
<path transform="translate(0,0)" fill="rgb(20,84,46)" d="M 1234.08 883.164 C 1239.22 879.596 1242.85 881.836 1249.69 881.135 C 1256.05 875.561 1248.62 868.972 1264.92 862.09 C 1260.05 866.659 1250.68 873.047 1253.15 880.714 C 1257.16 882.99 1259.13 878.928 1261.69 875.825 C 1263.58 884.775 1258.06 889.078 1249.66 891.169 C 1239.89 893.6 1224.31 885.969 1216.51 889.415 C 1210.89 891.897 1204.25 898.967 1198.05 902.327 C 1202.18 906.871 1209.22 913.072 1209.09 918.85 C 1204.82 920.996 1187.53 917.128 1179.54 916.872 C 1168.24 923.38 1163.97 931.252 1156.85 935.265 C 1154.67 930.893 1165.35 917.165 1169.87 915.252 C 1179.42 911.208 1188.51 912.455 1198.4 913.859 C 1196.43 909.706 1194.48 905.376 1192.24 901.384 C 1199.45 892.044 1201.51 891.416 1209.5 883.51 C 1216.13 883.526 1229.65 882.041 1234.08 883.164 z"/>
<path transform="translate(0,0)" fill="rgb(25,98,47)" d="M 1234.08 883.164 C 1238.56 882.684 1246.29 881.28 1249.8 884.654 C 1245.1 885.078 1237.98 886.151 1234.08 883.164 z"/>
<path transform="translate(0,0)" fill="rgb(36,122,50)" d="M 680.861 1009.13 C 680.116 1009.62 679.611 1009.56 678.621 1009.74 C 671.367 1006.28 651.122 974.744 652.422 968.808 L 654.408 969.313 C 656.491 972.738 657.398 973.201 660.99 974.944 L 662.088 975.663 C 664.24 977.055 668.417 979.654 670.835 980.346 C 688.306 985.347 680.241 993.894 680.861 1009.13 z"/>
<path transform="translate(0,0)" fill="rgb(11,47,48)" d="M 1262.25 858.615 C 1264.16 857.307 1287.62 855.944 1291.43 856.029 C 1290.94 859.323 1291.37 860.731 1288.83 862.797 C 1282.95 867.572 1263.59 867.316 1261.69 875.825 C 1259.13 878.928 1257.16 882.99 1253.15 880.714 C 1250.68 873.047 1260.05 866.659 1264.92 862.09 L 1266.42 861.057 L 1266.07 859.874 L 1262.25 858.615 z"/>
<path transform="translate(0,0)" fill="rgb(20,84,46)" d="M 1111.06 955.98 L 1112.15 955.401 C 1125.69 948.083 1132.85 934.202 1150.6 939.199 C 1192.45 950.987 1150.43 993.903 1136.59 977.236 C 1136.19 974.599 1136.06 974.374 1136.69 971.842 C 1134.15 969.936 1130.99 968.065 1127.8 967.941 C 1123.67 969.143 1114.58 959.011 1111.06 955.98 z"/>
<path transform="translate(0,0)" fill="rgb(36,122,50)" d="M 1127.8 967.941 C 1126.03 956.87 1133.05 947.508 1144.14 946.78 C 1148 946.515 1151.8 947.852 1154.64 950.476 C 1168.19 962.793 1151.77 973.816 1136.69 971.842 C 1134.15 969.936 1130.99 968.065 1127.8 967.941 z"/>
<path transform="translate(0,0)" fill="rgb(20,84,46)" d="M 1094.59 973.328 C 1106.36 972.69 1116.02 978.154 1121.62 989.385 C 1122.24 990.631 1121.66 990.854 1120.93 991.946 C 1115.25 992.114 1108.33 981.648 1092.7 982.308 C 1072.02 983.182 1055.14 1000.55 1041.56 1015.19 C 1052.84 1014.55 1058.08 1015.31 1069.23 1016.12 C 1071.92 1016.31 1079.15 1011.13 1084.86 1013.2 L 1085.4 1015.02 C 1083.55 1019.17 1083.54 1018.26 1079.33 1021.21 C 1071.61 1026.48 1065.89 1019.64 1054.6 1020.63 C 1035.92 1022.27 1026 1029.59 1006.22 1033.05 C 1013.24 1027.01 1020.91 1022.62 1028.52 1015.6 C 1051.17 994.702 1062.3 976.396 1094.59 973.328 z"/>
<path transform="translate(0,0)" fill="rgb(11,47,48)" d="M 1397.82 862.611 C 1402.5 863.215 1403.35 863.133 1405.3 867.263 C 1405.1 871.571 1404.71 872.314 1403.06 876.161 C 1399.67 874.393 1397.72 873.815 1395.7 870.604 C 1395.04 867.299 1396.3 865.719 1397.82 862.611 z"/>
<path transform="translate(0,0)" fill="rgb(65,140,66)" d="M 1377.19 873.985 C 1385.23 874.44 1387.45 875.195 1393.83 880.016 C 1386.37 879.618 1383.39 878.08 1377.19 873.985 z"/>
<path transform="translate(0,0)" fill="rgb(36,122,50)" d="M 1032.21 178.535 C 1063.1 198.626 1090.09 229.704 1123.9 249.469 C 1151.79 265.775 1178.66 271.577 1206.05 285.553 C 1215.04 289.505 1224.37 298.533 1227.22 299.451 L 1227.87 298.011 C 1226.08 291.413 1224.12 284.861 1221.99 278.363 C 1244.94 284.482 1256.75 305.761 1278.66 315.532 C 1287.08 318.055 1294.58 321.474 1302.23 325.809 C 1304.31 332.815 1306.12 339.899 1307.65 347.046 C 1313.79 367.391 1333.72 377.763 1354.16 375.713 L 1355.27 375.847 C 1375.06 374.467 1383.37 402.531 1381.68 418.277 C 1380.09 426.208 1377.47 432.623 1372.14 438.89 C 1368.48 444.841 1356.67 450.292 1350.47 453.054 C 1346.14 428.313 1349.24 428.46 1336.94 402.422 L 1333.74 405.578 C 1335.46 410.116 1332.93 419.701 1330.1 422.923 C 1323.5 430.411 1296.97 413.701 1289.05 410.401 C 1266.1 400.833 1246.24 401.889 1222.13 402.904 C 1209.15 406.586 1186.18 412.626 1177.14 422.7 C 1177.52 428.876 1196.56 436.721 1201.66 439.662 C 1222.55 451.722 1230.33 472.659 1234.49 495.2 C 1234.97 499.669 1236.31 509.662 1234.27 513.7 C 1240.85 527.556 1254.11 519.968 1265.6 519.382 C 1270 519.157 1276.1 522.805 1279.77 520.81 C 1282.37 519.4 1284.73 517.586 1286.76 515.434 C 1292.43 510.924 1296.87 509.378 1303.78 507.216 C 1301.04 512.331 1297.91 518.562 1295.01 523.474 C 1293.23 526.607 1291.47 529.954 1289.34 532.829 C 1277.85 545.745 1271.95 548.842 1255.69 555.517 C 1250.45 557.004 1242.67 560.144 1237.37 562.095 C 1231.59 533.935 1225.04 538.751 1216.18 519.156 C 1225.9 465.634 1178.87 448.957 1135.77 446.616 C 1130.13 446.31 1120.91 444.69 1116.07 441.812 L 1116.1 440.501 L 1119.98 438.525 C 1127.01 433.876 1130.25 432.239 1134.09 424.817 C 1120.64 415.817 1111.7 404.898 1094.22 401.654 C 1082.94 399.56 1070.75 396.896 1060.05 392.804 C 1062.33 389.695 1064.09 386.68 1067.65 385.157 C 1082.32 378.014 1106.18 378.038 1122.33 377.976 C 1118.69 373.141 1097.28 361.404 1090.51 356.359 C 1078.83 347.652 1066 339.175 1054.84 329.555 C 1051.44 327.832 1043.71 325.098 1042 322.904 L 1042.15 321.899 C 1044.72 320.578 1046.15 320.635 1049.08 320.289 C 1070.92 318.781 1100.99 317.602 1122.33 320.672 C 1130.97 318.827 1147.88 323.384 1154.09 319.132 C 1153.25 311.649 1113.52 282.545 1105.4 275.162 C 1092.32 263.277 1059.67 230.679 1054.18 214.185 C 1047.57 205.68 1038.46 188.519 1032.21 178.535 z"/>
<path transform="translate(0,0)" fill="rgb(20,84,46)" d="M 1060.05 392.804 C 1062.33 389.695 1064.09 386.68 1067.65 385.157 L 1068.54 385.484 C 1093.48 394.395 1113.02 383.389 1129.47 409.252 C 1131.54 412.504 1142.45 421.361 1142.24 423.722 C 1140.83 439.271 1161.26 436.084 1171.61 439.855 C 1199.08 446.77 1220.33 469.556 1226.03 497.054 L 1228.68 498.668 C 1232.15 498.384 1231.25 498.228 1234.49 495.2 C 1234.97 499.669 1236.31 509.662 1234.27 513.7 C 1240.85 527.556 1254.11 519.968 1265.6 519.382 C 1270 519.157 1276.1 522.805 1279.77 520.81 C 1282.37 519.4 1284.73 517.586 1286.76 515.434 C 1292.43 510.924 1296.87 509.378 1303.78 507.216 C 1301.04 512.331 1297.91 518.562 1295.01 523.474 C 1293.23 526.607 1291.47 529.954 1289.34 532.829 C 1277.85 545.745 1271.95 548.842 1255.69 555.517 C 1250.45 557.004 1242.67 560.144 1237.37 562.095 C 1231.59 533.935 1225.04 538.751 1216.18 519.156 C 1225.9 465.634 1178.87 448.957 1135.77 446.616 C 1130.13 446.31 1120.91 444.69 1116.07 441.812 L 1116.1 440.501 L 1119.98 438.525 C 1127.01 433.876 1130.25 432.239 1134.09 424.817 C 1120.64 415.817 1111.7 404.898 1094.22 401.654 C 1082.94 399.56 1070.75 396.896 1060.05 392.804 z"/>
<path transform="translate(0,0)" fill="url(#Gradient5)" d="M 1286.76 515.434 C 1292.43 510.924 1296.87 509.378 1303.78 507.216 C 1301.04 512.331 1297.91 518.562 1295.01 523.474 C 1293.23 526.607 1291.47 529.954 1289.34 532.829 C 1277.85 545.745 1271.95 548.842 1255.69 555.517 L 1253.25 554.352 C 1251.79 549.653 1250.91 544.228 1249.98 539.345 C 1249.48 536.845 1249.52 536.064 1247.87 534.076 C 1243.28 532.198 1236.46 533.122 1231.1 533.238 C 1228.31 528.979 1226.59 525.401 1224.32 520.838 C 1225.13 516.152 1230.14 514.228 1234.27 513.7 C 1240.85 527.556 1254.11 519.968 1265.6 519.382 C 1270 519.157 1276.1 522.805 1279.77 520.81 C 1282.37 519.4 1284.73 517.586 1286.76 515.434 z"/>
<path transform="translate(0,0)" fill="rgb(20,84,46)" d="M 1249.98 539.345 C 1259.46 540.095 1254.23 533.859 1257.17 529.063 L 1258.35 530.322 C 1265.48 538.339 1259.96 539.681 1263.28 545.287 C 1273.26 544.573 1276.9 533.163 1289.34 532.829 C 1277.85 545.745 1271.95 548.842 1255.69 555.517 L 1253.25 554.352 C 1251.79 549.653 1250.91 544.228 1249.98 539.345 z"/>
<path transform="translate(0,0)" fill="rgb(25,98,47)" d="M 1249.98 539.345 C 1259.46 540.095 1254.23 533.859 1257.17 529.063 L 1258.35 530.322 C 1254.86 539.156 1259.56 548.902 1253.25 554.352 C 1251.79 549.653 1250.91 544.228 1249.98 539.345 z"/>
<path transform="translate(0,0)" fill="rgb(65,140,66)" d="M 1286.76 515.434 C 1292.43 510.924 1296.87 509.378 1303.78 507.216 C 1301.04 512.331 1297.91 518.562 1295.01 523.474 C 1290.17 521.41 1289.34 519.725 1286.76 515.434 z"/>
<path transform="translate(0,0)" fill="rgb(25,98,47)" d="M 1234.49 495.2 C 1234.97 499.669 1236.31 509.662 1234.27 513.7 C 1230.14 514.228 1225.13 516.152 1224.32 520.838 C 1223.38 518.52 1225.6 500.408 1226.03 497.054 L 1228.68 498.668 C 1232.15 498.384 1231.25 498.228 1234.49 495.2 z"/>
<path transform="translate(0,0)" fill="rgb(16,68,50)" d="M 1134.09 424.817 C 1137.05 426.478 1137.88 426.639 1139.55 429.417 C 1138.4 436.052 1125.84 438.706 1119.98 438.525 C 1127.01 433.876 1130.25 432.239 1134.09 424.817 z"/>
<path transform="translate(0,0)" fill="rgb(167,183,100)" d="M 1032.21 178.535 C 1063.1 198.626 1090.09 229.704 1123.9 249.469 C 1151.79 265.775 1178.66 271.577 1206.05 285.553 C 1170.75 290.66 1119.64 261.089 1090.65 242.259 C 1078.34 234.268 1068.11 222.395 1054.18 214.185 C 1047.57 205.68 1038.46 188.519 1032.21 178.535 z"/>
<path transform="translate(0,0)" fill="rgb(20,84,46)" d="M 1222.13 402.904 C 1252.19 384.794 1275.37 385.574 1306.28 398.856 C 1317.88 396.625 1314.82 406.815 1321.8 413.684 C 1325.25 414.509 1323.8 414.575 1327.14 413.252 C 1329.93 410.275 1330.41 406.399 1331.32 402.402 L 1333.74 405.578 C 1335.46 410.116 1332.93 419.701 1330.1 422.923 C 1323.5 430.411 1296.97 413.701 1289.05 410.401 C 1266.1 400.833 1246.24 401.889 1222.13 402.904 z"/>
<path transform="translate(0,0)" fill="rgb(20,84,46)" d="M 1054.84 329.555 C 1071.08 331.228 1137.1 363.989 1148.1 377.422 C 1150.91 380.844 1159.06 394.844 1161.79 399.632 C 1158.07 397.497 1154.06 395.291 1150.43 393.064 C 1149.51 388.726 1148.89 385.902 1144.9 383.654 C 1139.83 380.989 1128.32 379.135 1122.33 377.976 C 1118.69 373.141 1097.28 361.404 1090.51 356.359 C 1078.83 347.652 1066 339.175 1054.84 329.555 z"/>
<path transform="translate(0,0)" fill="rgb(20,84,46)" d="M 1333.23 390.211 C 1340.32 393.908 1339.86 393.995 1345.6 398.744 C 1350.68 402.951 1359.33 419.835 1363.75 418.798 C 1364.36 405.933 1335.96 388.023 1335.76 382.216 C 1348.59 380.181 1364.26 409.272 1368.71 418.775 C 1370.66 426.193 1368.97 436.5 1372.14 438.89 C 1368.48 444.841 1356.67 450.292 1350.47 453.054 C 1346.14 428.313 1349.24 428.46 1336.94 402.422 C 1334.95 397.734 1333.65 395.301 1333.23 390.211 z"/>
<path transform="translate(0,0)" fill="rgb(36,122,50)" d="M 1355.27 375.847 C 1375.06 374.467 1383.37 402.531 1381.68 418.277 C 1380.09 426.208 1377.47 432.623 1372.14 438.89 C 1368.97 436.5 1370.66 426.193 1368.71 418.775 C 1376.71 404.848 1357.44 387.661 1354.16 375.713 L 1355.27 375.847 z"/>
<path transform="translate(0,0)" fill="rgb(25,98,47)" d="M 1354.16 375.713 L 1355.27 375.847 C 1361.83 384.144 1368.58 388.864 1371.78 399.511 C 1373.26 404.448 1372.98 417.828 1375.26 420.229 C 1378.39 419.99 1378.77 419.648 1381.68 418.277 C 1380.09 426.208 1377.47 432.623 1372.14 438.89 C 1368.97 436.5 1370.66 426.193 1368.71 418.775 C 1376.71 404.848 1357.44 387.661 1354.16 375.713 z"/>
<path transform="translate(0,0)" fill="rgb(167,183,100)" d="M 1049.08 320.289 C 1070.92 318.781 1100.99 317.602 1122.33 320.672 L 1132.26 325.29 C 1119.83 325.924 1106.75 324.22 1094.22 323.535 C 1085.44 323.055 1053.32 327.123 1049.08 320.289 z"/>
<path transform="translate(0,0)" fill="rgb(167,183,100)" d="M 1221.99 278.363 C 1244.94 284.482 1256.75 305.761 1278.66 315.532 L 1276 317.7 C 1271.22 314.467 1268.4 312.462 1263.19 310.091 L 1259.25 307.378 C 1251.27 301.417 1242.31 294.28 1232.62 292.832 C 1229.18 294.017 1229.99 294.151 1227.87 298.011 C 1226.08 291.413 1224.12 284.861 1221.99 278.363 z"/>
<path transform="translate(0,0)" fill="rgb(167,183,100)" d="M 1278.66 315.532 C 1287.08 318.055 1294.58 321.474 1302.23 325.809 C 1304.31 332.815 1306.12 339.899 1307.65 347.046 C 1304.98 347.731 1305.89 347.557 1302.78 346.268 C 1297.44 339.724 1300.88 330.752 1294.69 326.611 L 1289.79 327.658 C 1286.92 326.041 1279.04 319.937 1276 317.7 L 1278.66 315.532 z"/>
<path transform="translate(0,0)" fill="rgb(65,140,66)" d="M 1227.87 298.011 C 1229.99 294.151 1229.18 294.017 1232.62 292.832 C 1242.31 294.28 1251.27 301.417 1259.25 307.378 C 1251.93 306.683 1235.13 300.467 1231.33 301.874 L 1230.5 306.087 C 1229.47 303.846 1228.37 301.633 1227.22 299.451 L 1227.87 298.011 z"/>
<path transform="translate(0,0)" fill="rgb(65,140,66)" d="M 1263.19 310.091 C 1268.4 312.462 1271.22 314.467 1276 317.7 C 1279.04 319.937 1286.92 326.041 1289.79 327.658 C 1286.02 329.486 1270.63 322.806 1267.51 319.759 C 1266.43 318.701 1268.08 318.487 1268.58 316.159 C 1266.25 313.899 1265.19 312.649 1263.19 310.091 z"/>
<path transform="translate(0,0)" fill="rgb(20,84,46)" d="M 1331.32 402.402 C 1329.36 398.368 1326.78 393.652 1326.96 389.203 L 1328.47 387.845 C 1330.18 388.203 1331.69 389.294 1333.23 390.211 C 1333.65 395.301 1334.95 397.734 1336.94 402.422 L 1333.74 405.578 L 1331.32 402.402 z"/>
<path transform="translate(0,0)" fill="rgb(25,98,47)" d="M 1144.9 383.654 C 1148.89 385.902 1149.51 388.726 1150.43 393.064 C 1148.38 392.212 1127.42 384.866 1128.54 385.894 C 1134.42 384.158 1140.91 385.88 1144.9 383.654 z"/>
<path transform="translate(0,0)" fill="rgb(3,28,49)" d="M 1189.35 312.361 C 1201.15 318.946 1208.05 322.947 1221.32 326.569 C 1231.84 329.441 1245.77 329.186 1254.71 334.56 C 1266.15 341.435 1278.42 355.031 1287.38 364.968 C 1275.12 368.621 1250.93 371.324 1244.61 373.684 C 1236.47 376.003 1208.66 357.841 1208.31 347.008 C 1201.41 336.07 1193.33 324.535 1189.35 312.361 z"/>
<path transform="translate(0,0)" fill="rgb(167,183,100)" d="M 1244.61 373.684 C 1236.47 376.003 1208.66 357.841 1208.31 347.008 C 1217 357.73 1221.82 362.402 1234.7 369.085 C 1236.49 370.015 1243.67 373.038 1244.61 373.684 z"/>
<path transform="translate(0,0)" fill="rgb(156,171,183)" d="M 1222.22 346.115 L 1220.67 343.27 C 1221.35 341.956 1221.67 340.701 1223.36 340.64 C 1234.92 340.226 1245.69 345.366 1248.15 356.607 C 1246.72 360.88 1247.75 359.892 1244.59 361.935 L 1239.41 361.982 C 1229.93 357.776 1227.28 354.994 1222.22 346.115 z"/>
<path transform="translate(0,0)" fill="rgb(254,254,254)" d="M 1222.22 346.115 C 1228.84 346.552 1232.6 349.307 1237.74 350.017 L 1239.41 361.982 C 1229.93 357.776 1227.28 354.994 1222.22 346.115 z"/>
<path transform="translate(0,0)" fill="rgb(190,202,207)" d="M 1237.74 350.017 C 1239.87 351.359 1246.5 355.885 1248.15 356.607 C 1246.72 360.88 1247.75 359.892 1244.59 361.935 L 1239.41 361.982 L 1237.74 350.017 z"/>
<path transform="translate(0,0)" fill="rgb(20,84,46)" d="M 1290.39 364.517 C 1298.01 365.247 1309.11 372.961 1311.27 380.835 C 1301.19 379.601 1294.2 373.672 1290.39 364.517 z"/>
<path transform="translate(0,0)" fill="url(#Gradient4)" d="M 815.063 190.461 C 821.161 194.746 813.67 204.762 810.356 209.878 C 742.225 315.062 758.117 464.176 861.777 540.718 C 888.8 560.689 917.268 573.325 948.654 585.522 C 935.79 568.054 921.278 555 908.285 539.494 C 858.602 480.198 878.266 373.944 931.833 323.072 C 936.27 318.858 943.468 312.055 940.479 306.075 C 934.633 302.288 927.799 304.363 920.685 305.033 C 940.018 293.086 957.374 286.7 979.836 282.517 C 1012.02 276.525 1038.68 277.332 1066.34 297.391 C 1071.12 300.308 1072.31 301.224 1076.41 305.043 C 1062.85 306.185 1027.91 309.309 1016 307.122 C 1008.51 307.455 995.67 310.657 987.996 312.375 C 996.608 314.808 1019.7 321.912 1018.83 332.813 C 1014.35 338.591 1006.03 338.675 999.393 340.877 C 978.715 347.739 953.871 372.973 943.434 391.427 C 925.001 424.538 920.217 463.535 930.103 500.119 C 940.007 535.59 967.691 575.242 996.48 598.309 C 1006.23 606.123 1022.45 614.811 1033.7 621.158 C 1021.92 624.635 1009.69 625.157 997.887 626.611 C 951.865 632.283 924.702 622.327 884.317 601.194 C 816.23 565.565 785.632 521.535 762.018 449.841 C 738.035 377.029 745.329 282.559 780.648 214.672 C 782.1 213.28 782.817 211.66 783.794 209.889 C 783.824 206.623 784.376 207.967 782.235 205.666 C 777.961 203.768 772.006 204.035 767.194 203.913 C 786.265 194.859 800.348 202.824 815.063 190.461 z"/>
<path transform="translate(0,0)" fill="rgb(16,68,50)" d="M 1066.34 297.391 C 1071.12 300.308 1072.31 301.224 1076.41 305.043 C 1062.85 306.185 1027.91 309.309 1016 307.122 C 1027.68 297.478 1056.84 304.775 1066.34 297.391 z"/>
<path transform="translate(0,0)" fill="rgb(248,190,145)" d="M 1146.03 858.513 L 1146.43 859.103 C 1145.23 863.682 1132.23 877.652 1128.19 882.173 C 1086.95 927.767 1033.12 960.102 973.495 975.085 C 927.795 986.471 874.852 982.541 833.947 957.931 C 832.4 956.86 830.886 955.741 829.408 954.578 C 804.153 934.699 795.431 900.408 836.839 893.426 C 887.743 884.936 939.984 880 991.449 875.091 C 1042.96 870.178 1094.63 863.41 1146.03 858.513 z"/>
<path transform="translate(0,0)" fill="rgb(3,28,49)" d="M 1095.52 878.361 C 1100.54 877.605 1103.58 876.681 1107.89 878.927 L 1108.26 881.125 C 1101.13 897.961 1035.58 937.809 1015.87 946.245 C 960.92 969.761 911.668 974.661 855.749 953.383 C 844.083 948.842 833.675 941.048 826.507 930.818 C 815.498 915.106 832.82 909.062 845.309 906.719 C 879.158 900.368 914.11 897.379 948.344 894.158 C 997.502 889.848 1046.57 884.582 1095.52 878.361 z"/>
<path transform="translate(0,0)" fill="rgb(254,254,254)" d="M 1139.55 638.432 C 1141.94 638.088 1143.43 637.539 1145.44 638.746 C 1146.52 642.552 1141.58 667.625 1140.66 673.479 C 1132.27 726.331 1120.06 779.746 1115.91 833.132 C 1103.32 835.14 1085.27 836.434 1072.58 837.31 C 1068.16 819.991 1066.2 802.918 1063.46 785.33 C 1060.32 765.151 1057.45 745.555 1055.24 725.255 C 1047.66 761.03 1043.63 804.306 1037.72 840.814 C 1025.58 842.954 1005.4 844.524 993.034 845.344 C 993.391 828.173 988.454 801.678 985.616 784.189 L 972.08 701.22 C 968.96 682.424 966.828 673.611 961.116 655.354 C 974.33 654.43 988.493 652.778 1001.84 651.673 C 1002.25 669.315 1006.03 692.532 1008.44 710.538 L 1017.01 778.94 C 1022.88 734.918 1030.97 693.074 1036.3 648.441 C 1047.48 646.349 1063.21 645.161 1074.82 643.954 C 1075.34 660.622 1078.57 681.472 1080.93 698.128 C 1084.66 723.098 1088.01 748.123 1090.97 773.196 C 1096.35 727.968 1104.7 688.067 1108.54 641.148 C 1117.93 639.855 1129.93 639.205 1139.55 638.432 z"/>
<path transform="translate(0,0)" fill="rgb(20,84,46)" d="M 423.416 586.506 C 428.774 566.838 434.305 549.44 443.269 531.094 C 491.558 432.266 566.112 356.043 658.659 298.658 L 659.472 299.237 C 652.725 306.388 651.496 310.278 646.095 317.752 C 629.777 340.331 617.695 364.483 606.755 390.129 C 601.023 403.285 595.959 416.722 591.583 430.389 C 584.393 453.113 563.991 532.496 571.548 551.283 L 573.551 552.113 C 572.402 564.341 570.711 579.088 570.326 591.197 C 574.922 580.207 578.379 565.271 585.524 557.125 C 583.733 570.874 576.769 603.679 572.94 616.879 C 569.079 593.891 563.516 565.173 546.709 547.528 C 537.757 538.13 526.705 535.428 514.064 535.191 C 474.867 534.455 449.315 560.759 423.416 586.506 z"/>
<path transform="translate(0,0)" fill="rgb(36,122,50)" d="M 590.286 401.965 C 573.307 450.854 550.16 494.578 557.308 549.765 C 530.852 522.651 506.404 518.553 472.218 536.746 C 468.794 538.572 465.606 541.303 462.56 538.22 C 462.245 530.823 470.556 519.394 474.941 513.62 C 494.602 476.695 514.699 453.831 549.486 428.804 C 561.361 420.261 579.536 411.053 590.286 401.965 z"/>
<path transform="translate(0,0)" fill="rgb(25,98,47)" d="M 472.218 536.746 C 468.794 538.572 465.606 541.303 462.56 538.22 C 462.245 530.823 470.556 519.394 474.941 513.62 C 474.04 519.225 471.626 531.803 472.218 536.746 z"/>
<path transform="translate(0,0)" fill="rgb(20,84,46)" d="M 711.685 352.881 C 713.176 354.51 712.404 369.774 712.351 372.893 C 711.765 407.481 711.328 443.023 717.839 477.165 C 725.061 515.033 744.689 554.056 767.338 585.073 C 774.1 594.334 784.979 604.107 792.135 613.751 L 792.748 614.586 C 784.605 612.505 774.555 609.905 766.81 606.801 C 738.795 595.573 711.926 580.855 680.964 580.917 C 637.833 580.402 626.387 589.432 590.551 606.951 C 609.424 568.82 617.097 542.464 631.301 503.166 C 648.718 454.977 680.518 393.609 711.685 352.881 z"/>
<path transform="translate(0,0)" fill="rgb(36,122,50)" d="M 687.214 477.588 C 692.102 482.109 699.783 517.544 703.157 526.915 C 712.98 554.204 726.303 567.85 743.144 590.472 C 730.52 587.46 715.953 582.708 702.936 579.25 C 688.416 576.345 673.639 573.803 658.765 574.605 C 654.139 574.855 644.236 576.73 640.228 575.106 C 638.739 567.101 656.993 536.355 661.519 527.977 C 670.605 511.451 679.174 494.647 687.214 477.588 z"/>
<path transform="translate(0,0)" fill="rgb(254,254,254)" d="M 905.803 659.588 C 918.196 658.662 932.132 656.765 943.009 663.867 C 949.653 667.768 952.401 675.857 953.254 683.249 C 955.833 705.592 955.001 729.426 954.961 751.923 C 954.916 777.248 955.888 802.753 952.888 827.842 C 952.328 832.527 949.644 837.607 946.995 841.415 C 938.999 854.112 918.504 854.441 903.761 856.666 C 891.921 858.071 882.591 859.29 870.647 857.884 C 862.997 851.91 857.302 844.074 856.751 834.164 C 855.406 809.968 856.006 785.36 855.914 761.096 C 855.823 737.41 855.457 713.338 857.375 689.765 C 857.742 685.25 862.807 677.349 865.601 673.854 C 875.873 660.938 890.482 661.057 905.803 659.588 z"/>
<path transform="translate(0,0)" fill="rgb(3,28,49)" d="M 906.244 695.312 C 910.236 695.552 917.995 695.979 918.538 701.065 C 922.458 737.787 922.294 778.467 917.272 815.013 C 916.912 817.632 908.166 820.609 905.924 821.392 C 902.792 821.34 898.866 821.449 896.201 819.678 C 893.818 818.094 893.3 815.638 892.823 812.993 C 890.418 799.691 887.807 708.312 894.387 700.02 C 897.136 696.554 902.178 696.037 906.244 695.312 z"/>
<path transform="translate(0,0)" fill="rgb(254,254,254)" d="M 576.233 707.389 C 595.686 703.955 611.745 710.177 613.191 731.66 C 616.092 774.747 615.772 821.789 613.317 864.855 C 611.297 900.293 576.687 903.703 548.235 907.771 C 539.627 908.405 526.448 911.1 516.903 912.275 C 522.314 890.852 519.396 832.939 520.046 807.852 C 520.689 783.024 519.977 750.892 518.85 725.794 C 518.724 722.993 516.923 718.46 515.824 715.772 C 535.863 712.32 556.01 709.524 576.233 707.389 z"/>
<path transform="translate(0,0)" fill="rgb(3,28,49)" d="M 561.417 745.351 C 566.769 744.824 572.492 743.652 577.088 746.273 C 582.133 756.175 580.068 840.722 578.183 856.631 C 577.586 861.67 577.102 863.865 573.051 866.928 C 565.679 868.712 562.474 868.901 555.039 869.387 L 554.842 792.831 C 554.789 779.192 554.201 761.012 555.203 747.692 C 557.237 745.533 558.036 745.994 561.417 745.351 z"/>
<path transform="translate(0,0)" fill="rgb(254,254,254)" d="M 1315.98 623.415 C 1360.78 617.991 1357.43 653.541 1356.72 685.779 C 1356.18 710.226 1359.83 722.715 1342.32 742.521 C 1348.07 767.04 1353.32 789.058 1361.45 812.89 C 1349.13 813.941 1336.82 815.109 1324.52 816.395 C 1318.04 795.448 1314.81 773.069 1308.36 752.116 C 1307.38 748.946 1305.12 748.78 1302.37 747.821 C 1299.76 749.076 1299.82 748.961 1297.89 751.068 C 1293.22 764.74 1296.71 803.668 1301.11 818.618 C 1285.67 819.677 1272.89 820.927 1257.17 821.35 C 1263.06 782.369 1260.68 740.791 1260.15 701.434 C 1259.79 674.675 1262.98 655.463 1256.28 629.218 C 1272.87 626.504 1298.73 624.941 1315.98 623.415 z"/>
<path transform="translate(0,0)" fill="rgb(3,28,49)" d="M 1296.14 657.269 C 1299.91 657.091 1310.89 656.522 1313.87 657.535 C 1327.51 662.172 1320.12 703.263 1317.15 712.113 C 1310.37 715.099 1303.39 715.825 1296.1 716.456 L 1296.14 657.269 z"/>
<path transform="translate(0,0)" fill="rgb(254,254,254)" d="M 1418.53 613.386 C 1435.24 610.996 1462.27 614.306 1463.9 636.14 C 1467.41 682.965 1464.16 731.434 1464.84 778.657 C 1465.05 793.929 1452.07 807.564 1436.94 809.997 C 1395.16 814.146 1377.94 819.825 1369.04 774.219 L 1369.03 761.659 C 1381.09 761.136 1393.46 759.911 1405.47 758.773 C 1405.85 762.229 1406.8 772.639 1409 774.253 C 1436.25 794.282 1430.42 738.495 1430.29 731.71 C 1393.94 747.754 1370.21 736.816 1370.47 695.252 C 1370.76 649.968 1362.01 619.648 1418.53 613.386 z"/>
<path transform="translate(0,0)" fill="rgb(3,28,49)" d="M 1417.29 649.066 C 1421.87 648.873 1425.02 648.44 1428.42 651.457 C 1431.31 658.816 1430.36 692.501 1428.62 701.226 C 1425.52 703.921 1425.59 703.214 1421.04 704.102 C 1417.02 704.378 1414.07 704.864 1410.24 703.465 C 1401.96 697.221 1405.04 663.465 1409.31 654.887 C 1411.33 650.824 1413.46 650.349 1417.29 649.066 z"/>
<path transform="translate(0,0)" fill="rgb(254,254,254)" d="M 1541.78 603.422 C 1564.2 605.763 1571.24 613.493 1572.19 636.687 C 1573.94 679.514 1574.25 722.721 1572.26 765.554 C 1571.34 785.194 1563.47 797.164 1543.78 801.261 C 1527.3 804.693 1506.34 805.463 1491.45 796.658 C 1482.36 791.281 1474.08 761.148 1479.27 753.131 C 1490.57 752.841 1503.45 751.206 1514.82 750.015 C 1515.04 753.526 1515.18 763.144 1518.17 765.443 C 1543.06 784.602 1538.3 735.287 1538.12 723.015 C 1527.99 726.674 1520.87 729.223 1510.46 731.693 C 1475.21 718.896 1478.65 701.49 1478.05 669.128 C 1477.02 612.714 1487.68 606.892 1541.78 603.422 z"/>
<path transform="translate(0,0)" fill="rgb(3,28,49)" d="M 1524.04 639.061 C 1530.07 638.885 1532.43 637.932 1536.45 642.669 C 1538.66 652.165 1539.05 683.848 1535.78 692.586 C 1533.26 695.252 1530.52 695.372 1526.81 696.176 C 1506.74 694.169 1513.05 667.946 1514.1 653.673 C 1514.59 647.114 1518.67 642.495 1524.04 639.061 z"/>
<path transform="translate(0,0)" fill="rgb(254,254,254)" d="M 691.455 689.5 C 694.109 689.088 699.101 688.796 701.941 688.546 C 705.124 717.725 711.879 749.591 717.089 778.734 C 723.047 812.06 728.322 847.262 737.301 879.739 C 726.898 881.639 710.035 883.196 699.268 884.458 C 698.696 872.425 696.437 860.021 694.531 848.084 C 688.142 848.738 666.745 850.419 661.719 852.778 L 661.105 855.134 C 659.219 866.5 658.062 879.177 656.78 890.718 C 645.286 891.63 630.491 893.955 618.803 895.438 C 621.132 885.874 623.041 876.204 624.621 866.476 C 632.593 817.397 642.488 768.486 649.063 719.211 C 650.127 711.241 649.209 702.967 648.311 695.018 C 660.518 692.84 678.799 691.08 691.455 689.5 z"/>
<path transform="translate(0,0)" fill="rgb(3,28,49)" d="M 677.302 741.04 C 679.91 748.157 687.037 803.159 688.504 813.705 C 684.791 814.405 680.731 814.826 676.96 815.302 L 666.535 816.3 C 669.727 793.682 672.462 762.932 677.302 741.04 z"/>
<path transform="translate(0,0)" fill="rgb(254,254,254)" d="M 807.421 673.422 C 815.21 673.644 825.554 674.279 831.449 680.166 C 845.394 695.405 841.064 724.751 841.534 744.046 C 842.764 794.523 827.046 804.93 781.216 806.304 C 780.937 829.866 779.778 848.47 784.877 871.576 C 781.077 872.381 776.902 873.049 773.05 873.743 C 762.187 875.201 752.216 876.636 741.446 878.621 C 747.144 842.237 745.3 809.094 745.114 772.5 C 744.959 742.136 747.76 709.142 741.36 679.35 C 763.289 676.463 785.328 674.485 807.421 673.422 z"/>
<path transform="translate(0,0)" fill="rgb(3,28,49)" d="M 781.319 708.538 C 790.692 708.146 803.874 705.342 805.728 717.475 C 808.255 734.009 807.529 753.98 803.068 770.088 C 795.371 773.141 789.182 773.243 781.092 773.648 C 780.987 751.944 781.062 730.24 781.319 708.538 z"/>
<path transform="translate(0,0)" fill="rgb(36,122,50)" d="M 403.057 593.249 C 403.638 577.262 406.477 562.663 410.651 547.018 C 422.558 502.38 442.081 457.941 465.991 418.344 C 475.069 404.198 485.746 391.426 495.564 377.788 C 543.663 310.98 611.145 254.598 685.335 219.116 C 713.725 205.538 784.577 182.537 815.063 190.461 C 800.348 202.824 786.265 194.859 767.194 203.913 C 772.006 204.035 777.961 203.768 782.235 205.666 C 784.376 207.967 783.824 206.623 783.794 209.889 C 782.817 211.66 782.1 213.28 780.648 214.672 L 779.806 210.455 C 775.737 207.879 770.53 211.692 766.086 213.028 C 728.327 224.378 694.492 241.912 661.439 263.086 C 641.91 275.597 621.735 287.309 603.504 301.994 C 551.422 342.598 507.084 392.621 471.241 448.002 C 465.934 456.203 456.857 472.725 450.823 479.092 C 435.36 505.595 410.08 564.783 403.057 593.249 z"/>
<path transform="translate(0,0)" fill="rgb(20,84,46)" d="M 767.194 203.913 C 772.006 204.035 777.961 203.768 782.235 205.666 C 784.376 207.967 783.824 206.623 783.794 209.889 C 782.817 211.66 782.1 213.28 780.648 214.672 L 779.806 210.455 C 775.737 207.879 770.53 211.692 766.086 213.028 C 728.327 224.378 694.492 241.912 661.439 263.086 C 641.91 275.597 621.735 287.309 603.504 301.994 C 551.422 342.598 507.084 392.621 471.241 448.002 C 465.934 456.203 456.857 472.725 450.823 479.092 C 454.138 460.234 479.536 426.732 491.033 410.602 C 529.455 356.697 578.604 309.3 632.273 270.719 C 643.81 262.425 659.572 256.075 671.761 248.55 C 680.376 243.902 689.97 235.479 698.478 231.516 C 720.592 221.216 744.023 211.432 767.194 203.913 z"/>
<path transform="translate(0,0)" fill="rgb(254,254,254)" d="M 1224.99 631.419 C 1239.16 630.044 1247.23 628.308 1245.42 646.887 C 1244.91 652.157 1245.03 659.509 1244.94 664.966 C 1227.92 665.388 1210.92 666.508 1193.98 668.321 L 1193.83 712.043 C 1206.76 711.425 1221.29 710.644 1233.96 708.748 C 1233.18 721.539 1233.29 729.868 1233.98 742.648 C 1220.77 742.896 1207.14 744.199 1193.94 745.264 L 1193.96 791.306 C 1210.91 790.759 1228.07 789.305 1244.99 787.965 L 1244.98 803.5 L 1244.91 822.684 C 1220.41 826.651 1179.41 828.507 1154.34 829.357 C 1160.54 808.052 1159.06 765.071 1158.95 741.763 C 1158.79 707.731 1160.91 670.544 1155.19 637.305 C 1178.41 635.476 1201.47 633.162 1224.99 631.419 z"/>
<path transform="translate(0,0)" fill="rgb(36,122,50)" d="M 678.702 306.219 C 691.513 286.154 724.544 253.075 745.778 241.05 C 737.471 268.069 724.579 275.037 708.956 296.449 C 699.679 309.165 685.316 330.045 677.405 343.696 C 663.094 368.393 649.671 395.067 637.46 420.73 C 631.69 432.855 617.39 470.003 611.805 478.034 C 602.558 504.234 593.796 530.602 585.524 557.125 C 578.379 565.271 574.922 580.207 570.326 591.197 C 570.711 579.088 572.402 564.341 573.551 552.113 C 591.179 451.914 621.352 388.346 678.702 306.219 z"/>
<path transform="translate(0,0)" fill="rgb(20,84,46)" d="M 678.702 306.219 C 691.513 286.154 724.544 253.075 745.778 241.05 C 737.471 268.069 724.579 275.037 708.956 296.449 C 699.679 309.165 685.316 330.045 677.405 343.696 C 663.094 368.393 649.671 395.067 637.46 420.73 C 631.69 432.855 617.39 470.003 611.805 478.034 C 611.306 450.824 647.625 395.887 654.084 366.37 C 656.788 354.014 681.854 318.802 678.702 306.219 z"/>
<path transform="translate(0,0)" fill="rgb(241,195,140)" d="M 976.826 374.252 C 987.986 362.718 1005.59 351.405 1022.21 353.294 C 1031.2 354.956 1035.93 357.302 1043.97 361.726 L 1044.98 362.803 C 1048.31 364.694 1051.65 366.515 1054.81 368.687 C 1045.98 371.6 1021.99 378.216 1013.16 378.292 C 1016.26 380.785 1019.04 383.13 1022.4 385.281 C 1029.49 389.507 1036.65 393.617 1043.87 397.61 L 1036.82 402.112 L 1035.15 407.109 C 1033.71 407.518 1028.79 409.025 1027.61 409.13 C 1014.94 421.549 1012.03 428.566 1007.9 445.929 L 997.684 441.646 C 993.956 440.042 990.43 438.183 986.814 436.343 C 980.754 433.191 975.651 430.164 969.834 426.659 C 966.905 424.991 964.799 423.439 962.082 421.494 L 958.683 419.198 C 955.843 418.156 955.146 418.104 953.035 416.072 C 951.431 409.024 960.349 396.395 964.208 389.735 C 967.979 383.347 971.511 379.314 976.826 374.252 z"/>
<path transform="translate(0,0)" fill="rgb(152,130,99)" d="M 976.826 374.252 C 987.986 362.718 1005.59 351.405 1022.21 353.294 C 1031.2 354.956 1035.93 357.302 1043.97 361.726 L 1044.98 362.803 C 1048.31 364.694 1051.65 366.515 1054.81 368.687 C 1045.98 371.6 1021.99 378.216 1013.16 378.292 C 1008.17 379.233 1007.7 375.942 999.997 376.533 L 998.793 374.588 C 993.878 374.167 992.271 373.199 988.826 377.505 L 985.198 375.873 L 983.341 378.244 C 981.375 377.728 978.658 375.526 976.826 374.252 z"/>
<path transform="translate(0,0)" fill="rgb(161,137,107)" d="M 998.793 374.588 L 998.893 374.527 L 998.662 373.966 C 1002.95 370.612 1039.13 363.035 1044.98 362.803 C 1048.31 364.694 1051.65 366.515 1054.81 368.687 C 1045.98 371.6 1021.99 378.216 1013.16 378.292 C 1008.17 379.233 1007.7 375.942 999.997 376.533 L 998.793 374.588 z"/>
<path transform="translate(0,0)" fill="rgb(78,80,81)" d="M 976.826 374.252 C 987.986 362.718 1005.59 351.405 1022.21 353.294 C 1020.19 356.254 1020.02 357.049 1016.84 358.155 L 1015.41 359.131 C 1002.15 363.238 996.501 369.6 985.826 374.109 L 985.198 375.873 L 983.341 378.244 C 981.375 377.728 978.658 375.526 976.826 374.252 z"/>
<path transform="translate(0,0)" fill="rgb(38,42,41)" d="M 985.826 374.109 C 982.728 364.906 1011.74 356.228 1016.84 358.155 L 1015.41 359.131 C 1002.15 363.238 996.501 369.6 985.826 374.109 z"/>
<path transform="translate(0,0)" fill="rgb(95,96,86)" d="M 1022.21 353.294 C 1031.2 354.956 1035.93 357.302 1043.97 361.726 C 1027.35 362.26 1029.98 361.435 1015.41 359.131 L 1016.84 358.155 C 1020.02 357.049 1020.19 356.254 1022.21 353.294 z"/>
<path transform="translate(0,0)" fill="rgb(38,42,41)" d="M 988.826 377.505 C 992.271 373.199 993.878 374.167 998.793 374.588 L 999.997 376.533 C 1007.7 375.942 1008.17 379.233 1013.16 378.292 C 1016.26 380.785 1019.04 383.13 1022.4 385.281 C 1029.49 389.507 1036.65 393.617 1043.87 397.61 L 1036.82 402.112 L 1035.15 407.109 C 1033.71 407.518 1028.79 409.025 1027.61 409.13 C 1019.57 406.647 1014.15 402.384 1007.66 397.354 L 1007.04 396.701 C 998.148 391.644 993.502 389.32 986.488 381.735 L 983.341 378.244 L 985.198 375.873 L 988.826 377.505 z"/>
<path transform="translate(0,0)" fill="url(#Gradient3)" d="M 1022.4 385.281 C 1029.49 389.507 1036.65 393.617 1043.87 397.61 L 1036.82 402.112 C 1027.88 403.598 1018.85 397.111 1010.81 392.625 C 1017.93 391.282 1018.03 390.82 1022.4 385.281 z"/>
<path transform="translate(0,0)" fill="rgb(152,130,99)" d="M 999.997 376.533 C 1007.7 375.942 1008.17 379.233 1013.16 378.292 C 1016.26 380.785 1019.04 383.13 1022.4 385.281 C 1018.03 390.82 1017.93 391.282 1010.81 392.625 C 1008.05 392.16 1006.69 390.888 1004.35 389.26 C 1006.71 388.618 1007 388.706 1008.97 387.167 C 1007.96 382.997 1003.5 379.879 999.997 376.533 z"/>
<path transform="translate(0,0)" fill="rgb(241,195,140)" d="M 988.826 377.505 C 992.271 373.199 993.878 374.167 998.793 374.588 L 999.997 376.533 C 1003.5 379.879 1007.96 382.997 1008.97 387.167 C 1007 388.706 1006.71 388.618 1004.35 389.26 C 999.467 385.875 993.649 381.176 988.826 377.505 z"/>
<path transform="translate(0,0)" fill="rgb(161,137,107)" d="M 1007.04 396.701 L 1007.66 397.354 C 1014.15 402.384 1019.57 406.647 1027.61 409.13 C 1014.94 421.549 1012.03 428.566 1007.9 445.929 L 997.684 441.646 C 993.956 440.042 990.43 438.183 986.814 436.343 L 989.417 435.07 C 990.183 426.923 994.258 419.002 997.643 411.571 C 999.382 408.11 1004.73 400.286 1007.04 396.701 z"/>
<path transform="translate(0,0)" fill="rgb(152,130,99)" d="M 1007.04 396.701 L 1007.66 397.354 C 1009.61 409.629 1004.14 414.213 1001.04 425.775 C 999.568 431.266 1000.3 436.844 997.684 441.646 C 993.956 440.042 990.43 438.183 986.814 436.343 L 989.417 435.07 C 990.183 426.923 994.258 419.002 997.643 411.571 C 999.382 408.11 1004.73 400.286 1007.04 396.701 z"/>
<path transform="translate(0,0)" fill="rgb(248,190,145)" d="M 969.834 426.659 C 973.156 420.906 976.527 408.448 981.714 405.207 C 983.147 404.311 984.368 405.239 986.345 405.933 L 992.056 408.807 L 992.567 410.867 C 995.245 412.217 994.286 411.835 997.643 411.571 C 994.258 419.002 990.183 426.923 989.417 435.07 L 986.814 436.343 C 980.754 433.191 975.651 430.164 969.834 426.659 z"/>
<path transform="translate(0,0)" fill="rgb(241,195,140)" d="M 969.834 426.659 C 973.156 420.906 976.527 408.448 981.714 405.207 C 983.147 404.311 984.368 405.239 986.345 405.933 C 980.708 409.52 980.154 413.57 977.991 420.266 C 984.796 425.563 987.445 426.685 989.417 435.07 L 986.814 436.343 C 980.754 433.191 975.651 430.164 969.834 426.659 z"/>
<path transform="translate(0,0)" fill="rgb(254,230,177)" d="M 962.082 421.494 C 973.524 376.426 996.937 401.421 992.056 408.807 L 986.345 405.933 C 984.368 405.239 983.147 404.311 981.714 405.207 C 976.527 408.448 973.156 420.906 969.834 426.659 C 966.905 424.991 964.799 423.439 962.082 421.494 z"/>
<path transform="translate(0,0)" fill="rgb(205,166,122)" d="M 964.208 389.735 C 968.935 390.123 969.567 390.188 973.368 393.132 C 966.103 401.757 961.749 407.909 958.683 419.198 C 955.843 418.156 955.146 418.104 953.035 416.072 C 951.431 409.024 960.349 396.395 964.208 389.735 z"/>
<path transform="translate(0,0)" fill="rgb(152,130,99)" d="M 976.826 374.252 C 978.658 375.526 981.375 377.728 983.341 378.244 L 986.488 381.735 C 979.651 383.159 979.71 383.426 975.746 389.438 C 974.943 390.662 974.15 391.893 973.368 393.132 C 969.567 390.188 968.935 390.123 964.208 389.735 C 967.979 383.347 971.511 379.314 976.826 374.252 z"/>
<path transform="translate(0,0)" fill="url(#Gradient2)" d="M 665.137 952.91 C 662.904 945.985 662.606 944.105 663.01 936.777 C 664.2 915.192 700.15 913.112 717.867 911.568 C 718.01 922.272 717.989 931.468 719.376 942.067 C 721.738 950.038 723.318 954.337 726.608 961.98 C 731.153 970.563 734.452 976.177 739.807 984.272 C 741.857 986.174 750.986 994.378 752.248 995.996 C 753.354 999.241 754.928 1002.22 753.875 1005.23 C 750.779 1005.98 735.935 999.206 725.228 998.324 C 719.252 1001.14 714.401 1004.65 708.333 1003.36 C 702.993 999.137 700.881 998.145 697.909 992.122 C 688.878 985.748 687.194 975.201 677.088 973.425 C 671.139 970.358 672.114 969.775 671.927 963.631 C 672.078 960.183 672.545 956.757 671.488 953.553 C 668.644 951.728 669.474 952.331 665.137 952.91 z"/>
<path transform="translate(0,0)" fill="rgb(20,84,46)" d="M 665.137 952.91 C 662.904 945.985 662.606 944.105 663.01 936.777 C 664.2 915.192 700.15 913.112 717.867 911.568 C 718.01 922.272 717.989 931.468 719.376 942.067 C 706.735 936.962 686.771 946.142 677.838 955.53 C 674.511 958.526 673.398 959.238 671.927 963.631 C 672.078 960.183 672.545 956.757 671.488 953.553 C 668.644 951.728 669.474 952.331 665.137 952.91 z"/>
<path transform="translate(0,0)" fill="rgb(25,98,47)" d="M 671.927 963.631 C 673.398 959.238 674.511 958.526 677.838 955.53 C 677.146 959.28 676.375 964.158 675.409 967.755 C 681.416 970.398 687.361 973.178 693.24 976.093 C 694.647 982.556 695.657 985.893 697.909 992.122 C 688.878 985.748 687.194 975.201 677.088 973.425 C 671.139 970.358 672.114 969.775 671.927 963.631 z"/>
<path transform="translate(0,0)" fill="rgb(167,183,100)" d="M 726.608 961.98 C 731.153 970.563 734.452 976.177 739.807 984.272 C 740.449 986.755 740.583 986.792 740.311 989.451 L 738.247 989.239 C 733.339 985.931 730.229 979.98 727.725 974.766 C 724.7 968.466 724.309 968.526 726.608 961.98 z"/>
<path transform="translate(0,0)" fill="rgb(241,195,140)" d="M 1042.36 548.506 C 1047.42 545.908 1050.36 544.686 1055.71 542.719 C 1067.31 550.922 1075.29 556.421 1088.03 562.681 C 1094.33 565.779 1104.74 570.016 1110.27 573.186 C 1104.74 576.122 1092.71 582.784 1087.11 584.399 C 1067.7 592.485 1052.05 595.328 1031.35 597.183 C 1010.49 587.347 993.588 570.255 977.934 553.778 C 1000.29 556.095 1020.9 556.941 1042.36 548.506 z"/>
<path transform="translate(0,0)" fill="rgb(152,130,99)" d="M 1042.36 548.506 C 1047.42 545.908 1050.36 544.686 1055.71 542.719 C 1067.31 550.922 1075.29 556.421 1088.03 562.681 C 1094.33 565.779 1104.74 570.016 1110.27 573.186 C 1104.74 576.122 1092.71 582.784 1087.11 584.399 C 1086.99 584.222 1048.31 553.948 1042.36 548.506 z"/>
<path transform="translate(0,0)" fill="rgb(248,190,145)" d="M 941.1 481.146 C 946.068 483.969 949.443 485.977 954.084 489.275 C 969.691 495.839 977.37 497.31 994.052 500.083 C 1004.09 500.006 1007.69 499.802 1017.59 498.382 C 1028.31 513.773 1034.79 522.182 1048.17 535.396 C 1042.49 538.172 1037.54 540.938 1031.31 542.163 C 1010.16 546.515 994.914 548.666 973.983 541.146 C 954.407 535.151 945.449 498.859 941.1 481.146 z"/>
<path transform="translate(0,0)" fill="rgb(152,130,99)" d="M 994.052 500.083 C 1004.09 500.006 1007.69 499.802 1017.59 498.382 C 1028.31 513.773 1034.79 522.182 1048.17 535.396 C 1042.49 538.172 1037.54 540.938 1031.31 542.163 C 1020.42 532.179 999.566 513.407 994.052 500.083 z"/>
<path transform="translate(0,0)" fill="rgb(205,166,122)" d="M 941.1 481.146 C 946.068 483.969 949.443 485.977 954.084 489.275 C 951.308 501.836 965.571 527.945 972.391 538.707 C 972.91 539.528 973.44 540.34 973.983 541.146 C 954.407 535.151 945.449 498.859 941.1 481.146 z"/>
<path transform="translate(0,0)" fill="rgb(254,230,177)" d="M 941.306 473.529 C 940.518 471.929 939.948 469.922 940.059 468.13 C 940.576 459.733 942.592 420.887 952.858 420.849 L 959.165 426.249 C 961.756 428.064 970.133 433.682 972.048 435.513 C 977.092 437.688 980.676 440.002 985.364 442.874 L 987.988 444.332 L 993.864 447.192 C 998.382 449.135 1003.29 451.37 1007.88 452.993 C 1007.86 468.166 1008.63 476.273 1013.69 490.888 C 1008.27 491.458 995.943 492.963 991.12 491.315 L 990.247 491.11 C 984.452 490.556 976.079 488.2 970.223 486.747 C 959.89 484.075 949.904 479.889 941.306 473.529 z"/>
<path transform="translate(0,0)" fill="rgb(241,195,140)" d="M 941.306 473.529 C 940.518 471.929 939.948 469.922 940.059 468.13 C 940.576 459.733 942.592 420.887 952.858 420.849 L 959.165 426.249 C 961.756 428.064 970.133 433.682 972.048 435.513 C 968.842 435.542 968.463 435.367 965.593 433.908 L 964.031 435.195 L 962.313 433.084 C 959.037 433.408 956.107 436.963 952.584 439.236 L 951.918 440.363 C 951.828 445.131 951.594 450.58 951.681 455.286 C 955.076 460.184 956.261 462.345 962.174 464.263 C 962.373 472.325 973.366 476.553 972.561 484.907 C 971.594 485.767 971.342 486.127 970.223 486.747 C 959.89 484.075 949.904 479.889 941.306 473.529 z"/>
<path transform="translate(0,0)" fill="rgb(161,137,107)" d="M 941.306 473.529 C 940.518 471.929 939.948 469.922 940.059 468.13 C 940.576 459.733 942.592 420.887 952.858 420.849 L 959.165 426.249 C 961.756 428.064 970.133 433.682 972.048 435.513 C 968.842 435.542 968.463 435.367 965.593 433.908 L 964.031 435.195 L 962.313 433.084 C 959.037 433.408 956.107 436.963 952.584 439.236 L 951.918 440.363 L 948.38 444.56 C 947.435 452.537 946.127 467.198 941.306 473.529 z"/>
<path transform="translate(0,0)" fill="rgb(205,166,122)" d="M 952.858 420.849 L 959.165 426.249 C 961.756 428.064 970.133 433.682 972.048 435.513 C 968.842 435.542 968.463 435.367 965.593 433.908 L 964.031 435.195 L 962.313 433.084 C 959.037 433.408 956.107 436.963 952.584 439.236 L 951.918 440.363 L 948.38 444.56 C 947.572 438.48 951.164 427.081 952.858 420.849 z"/>
<path transform="translate(0,0)" fill="rgb(241,195,140)" d="M 952.584 439.236 C 953.905 434.837 955.753 429.354 959.165 426.249 C 961.756 428.064 970.133 433.682 972.048 435.513 C 968.842 435.542 968.463 435.367 965.593 433.908 L 964.031 435.195 L 962.313 433.084 C 959.037 433.408 956.107 436.963 952.584 439.236 z"/>
<path transform="translate(0,0)" fill="rgb(152,130,99)" d="M 987.988 444.332 L 993.864 447.192 C 998.382 449.135 1003.29 451.37 1007.88 452.993 C 1007.86 468.166 1008.63 476.273 1013.69 490.888 C 1008.27 491.458 995.943 492.963 991.12 491.315 L 990.247 491.11 C 990.298 484.401 989.479 481.51 987.764 475.022 L 986.192 468.507 C 985.793 459.937 986.458 452.73 987.988 444.332 z"/>
<path transform="translate(0,0)" fill="rgb(161,137,107)" d="M 987.988 444.332 L 993.864 447.192 C 993.988 456.355 995.818 483.736 994.716 490.477 L 991.12 491.315 L 990.247 491.11 C 990.298 484.401 989.479 481.51 987.764 475.022 L 986.192 468.507 C 985.793 459.937 986.458 452.73 987.988 444.332 z"/>
<path transform="translate(0,0)" fill="rgb(248,190,145)" d="M 964.031 435.195 L 965.593 433.908 C 968.463 435.367 968.842 435.542 972.048 435.513 C 977.092 437.688 980.676 440.002 985.364 442.874 L 987.988 444.332 C 986.458 452.73 985.793 459.937 986.192 468.507 C 975.783 462.309 970.44 464.106 961.387 453.823 C 961.284 449.436 961.92 444.874 962.391 440.496 L 964.031 435.195 z"/>
<path transform="translate(0,0)" fill="rgb(241,195,140)" d="M 964.031 435.195 L 965.593 433.908 C 968.463 435.367 968.842 435.542 972.048 435.513 C 977.092 437.688 980.676 440.002 985.364 442.874 C 985.402 447.738 985.38 448.204 981.176 450.138 C 974.594 450.326 967.737 444.387 962.391 440.496 L 964.031 435.195 z"/>
<path transform="translate(0,0)" fill="rgb(248,190,145)" d="M 962.174 464.263 C 971.339 467.903 978.127 472.687 987.764 475.022 C 989.479 481.51 990.298 484.401 990.247 491.11 C 984.452 490.556 976.079 488.2 970.223 486.747 C 971.342 486.127 971.594 485.767 972.561 484.907 C 973.366 476.553 962.373 472.325 962.174 464.263 z"/>
<path transform="translate(0,0)" fill="rgb(36,122,50)" d="M 741.191 907.158 C 752.848 907.063 762.292 905.933 773.847 904.215 C 765.303 930.746 765.028 935.367 766.641 962.989 C 769.069 966.416 772.905 970.308 775.837 973.467 L 776.031 957.892 C 775.53 948.605 777.149 944.731 779.996 935.966 C 782.319 941.675 783.235 944.176 784.626 950.138 C 791.269 972.832 800.585 988.876 816.283 1006.63 C 802.019 1002.67 776.052 993.384 766.762 981.991 L 757.287 972.902 C 744.168 961.272 734.985 934.924 736.951 917.586 C 738.321 914.124 739.672 910.548 741.191 907.158 z"/>
<path transform="translate(0,0)" fill="rgb(20,84,46)" d="M 741.191 907.158 C 752.848 907.063 762.292 905.933 773.847 904.215 C 765.303 930.746 765.028 935.367 766.641 962.989 C 756.286 955.205 754.825 930.986 746.298 920.81 C 743.583 917.57 741.138 917.837 736.951 917.586 C 738.321 914.124 739.672 910.548 741.191 907.158 z"/>
<path transform="translate(0,0)" fill="rgb(16,68,50)" d="M 779.996 935.966 C 782.319 941.675 783.235 944.176 784.626 950.138 C 781.083 951.51 778.237 954.812 776.031 957.892 C 775.53 948.605 777.149 944.731 779.996 935.966 z"/>
<path transform="translate(0,0)" fill="rgb(167,183,100)" d="M 757.287 972.902 L 758.196 968.967 C 762.764 968.443 766.699 978.304 766.762 981.991 L 757.287 972.902 z"/>
<path transform="translate(0,0)" fill="rgb(248,190,145)" d="M 1115.08 579.129 C 1116.92 578.458 1121.06 576.964 1122.75 577.466 C 1142.54 583.364 1169.35 594.995 1187.79 603.585 L 1190.2 604.711 C 1183.47 605.244 1176.26 605.679 1169.6 606.467 C 1166.55 606.834 1158.48 607.974 1155.85 607.817 C 1127.59 609.393 1094.95 615.926 1067.67 613.933 C 1061.16 613.457 1050.02 606.866 1044.07 603.466 C 1071.02 600.725 1082.17 596.461 1106.23 584.595 C 1108.37 583.049 1112.68 580.591 1115.08 579.129 z"/>
<path transform="translate(0,0)" fill="rgb(161,137,107)" d="M 1115.08 579.129 C 1116.92 578.458 1121.06 576.964 1122.75 577.466 C 1142.54 583.364 1169.35 594.995 1187.79 603.585 L 1190.2 604.711 C 1183.47 605.244 1176.26 605.679 1169.6 606.467 C 1166.55 606.834 1158.48 607.974 1155.85 607.817 C 1154.88 605.269 1149.83 604.783 1147.06 603.875 C 1132.75 599.198 1119.34 591.776 1106.23 584.595 C 1108.37 583.049 1112.68 580.591 1115.08 579.129 z"/>
<path transform="translate(0,0)" fill="rgb(152,130,99)" d="M 1106.23 584.595 C 1108.37 583.049 1112.68 580.591 1115.08 579.129 C 1124.47 587.573 1143.8 594.406 1155.65 600.057 C 1160.26 602.259 1165.25 603.451 1169.6 606.467 C 1166.55 606.834 1158.48 607.974 1155.85 607.817 C 1154.88 605.269 1149.83 604.783 1147.06 603.875 C 1132.75 599.198 1119.34 591.776 1106.23 584.595 z"/>
<path transform="translate(0,0)" fill="rgb(20,84,46)" d="M 1386.64 579.401 C 1402.54 576.017 1420.89 582.196 1435.07 588.867 C 1429.98 589.125 1414.99 589.828 1410.65 590.946 C 1386.54 597.147 1380.92 599.675 1355.75 598.958 C 1338.65 597.411 1322.36 594.439 1305.1 593.491 C 1334.33 586.137 1356.75 582.745 1386.64 579.401 z"/>
<path transform="translate(0,0)" fill="url(#Gradient1)" d="M 823.533 983.861 C 823.826 980.305 823.408 978.046 825.174 975.431 C 832.03 977.789 838.237 982.942 844.769 985.633 C 863.959 993.541 892.646 1002.91 913.37 1002.81 L 914.901 1004.39 C 904.979 1005.91 894.021 1007.8 884.13 1008.9 C 868.822 1011.43 850.93 1010.57 835.615 1008.75 C 829.454 1001.41 824.668 993.448 823.533 983.861 z"/>
<path transform="translate(0,0)" fill="rgb(36,122,50)" d="M 823.533 983.861 C 831.146 986.399 845.032 993.865 853.581 997.411 C 859.199 999.742 880.862 1006.94 884.13 1008.9 C 868.822 1011.43 850.93 1010.57 835.615 1008.75 C 829.454 1001.41 824.668 993.448 823.533 983.861 z"/>
<path transform="translate(0,0)" fill="rgb(160,18,37)" d="M 1209.79 430.562 C 1225.43 422.675 1229.29 422.046 1246.45 422.04 C 1248.85 437.296 1259.41 458.364 1259.34 466.961 C 1252.11 468.006 1246.45 467.907 1239.21 467.933 C 1229.83 449.798 1224.13 444.744 1209.79 430.562 z"/>
<path transform="translate(0,0)" fill="rgb(36,122,50)" d="M 1135.14 185.94 C 1157.39 212.907 1178.71 239.056 1203.78 263.637 C 1186.84 257.869 1177.35 253.334 1161.92 243.856 C 1150.31 234.727 1145.69 222.955 1141.63 208.944 C 1138.92 200.602 1137.1 194.475 1135.14 185.94 z"/>
<path transform="translate(0,0)" fill="rgb(65,140,66)" d="M 1141.63 208.944 C 1147.9 211.793 1162.45 237.489 1161.92 243.856 C 1150.31 234.727 1145.69 222.955 1141.63 208.944 z"/>
<path transform="translate(0,0)" fill="rgb(222,24,120)" d="M 1239.21 467.933 C 1246.45 467.907 1252.11 468.006 1259.34 466.961 C 1256.61 482.964 1258.19 483.487 1263.76 497.878 C 1271.42 503.886 1277.51 507.459 1285.88 512.494 C 1278.02 511.743 1270.78 510.181 1263.06 509.765 C 1258.06 509.495 1253.63 512.217 1249.27 510.679 C 1247.32 508.227 1247.68 505.191 1247.54 501.867 C 1247.43 491.538 1242.93 477.663 1239.21 467.933 z"/>
<path transform="translate(0,0)" fill="rgb(248,221,239)" d="M 1247.54 501.867 C 1247.73 497.542 1247.49 497.171 1249.95 494.569 C 1254 493.583 1259.5 496.329 1263.76 497.878 C 1271.42 503.886 1277.51 507.459 1285.88 512.494 C 1278.02 511.743 1270.78 510.181 1263.06 509.765 C 1258.06 509.495 1253.63 512.217 1249.27 510.679 C 1247.32 508.227 1247.68 505.191 1247.54 501.867 z"/>
<path transform="translate(0,0)" fill="rgb(16,68,50)" d="M 999.485 243.699 C 1014.28 243.626 1029.21 252.876 1040.22 261.977 L 1013.89 261.93 C 1009.17 255.488 1005.01 249.497 999.485 243.699 z"/>
<path transform="translate(0,0)" fill="rgb(11,47,48)" d="M 1463.95 857.754 C 1478.08 860.558 1495.51 883.57 1502.39 895.539 C 1490.86 892.67 1475.44 868.348 1463.95 857.754 z"/>
<path transform="translate(0,0)" fill="rgb(11,47,48)" d="M 885.755 364.876 C 886.319 365.494 886.329 366.02 886.619 366.948 C 879.982 383.786 877.614 393.599 862.502 403.708 L 861.25 401.507 C 863.165 394.919 880.415 372.859 885.755 364.876 z"/>
<path transform="translate(0,0)" fill="rgb(11,47,48)" d="M 1089.06 290.634 C 1093.62 292.94 1106.24 300.745 1108.24 305.374 L 1106.1 306.345 C 1098.64 305.407 1086.79 305.663 1084.12 297.848 C 1085.17 293.595 1085.62 294.197 1089.06 290.634 z"/>
<path transform="translate(0,0)" fill="rgb(16,68,50)" d="M 723.597 660.094 C 725.746 660.34 724.747 659.951 726.513 661.66 C 726.541 666.262 726.675 672.923 721.472 674.444 L 718.802 672.143 L 707.357 665.451 C 713.795 662.83 716.867 661.687 723.597 660.094 z"/>
<path transform="translate(0,0)" fill="rgb(24,49,63)" d="M 1043.87 397.61 L 1045.95 399.608 C 1044.9 404.298 1039.37 405.461 1035.15 407.109 L 1036.82 402.112 L 1043.87 397.61 z"/>
<path transform="translate(0,0)" fill="rgb(24,49,63)" d="M 913.37 1002.81 C 917.057 1002.28 919.328 1001.56 922.789 1002.83 C 920.512 1004.5 917.867 1004.23 914.901 1004.39 L 913.37 1002.81 z"/>
<path transform="translate(0,0)" fill="rgb(3,28,49)" d="M 1327.42 952.362 C 1353.24 949.205 1379.24 963.984 1382.31 991.228 C 1385.69 1021.21 1354.52 1034.34 1330.54 1040.48 C 1293.28 1050.04 1253.92 1047.58 1215.76 1051.12 C 1198.82 1051.82 1181.6 1056.26 1163.35 1056.08 C 1205.29 1015.59 1268.74 959.441 1327.42 952.362 z"/>
<path transform="translate(0,0)" fill="rgb(3,28,49)" d="M 1055.1 442.418 C 1064.66 448.175 1071.32 456.43 1079.92 462.163 C 1097.08 473.615 1126.28 472.848 1146.71 477.279 C 1160.3 479.96 1178.49 483.144 1186.77 495.695 C 1199.23 514.573 1179.52 521.697 1166.78 528.824 C 1181 539.481 1194.62 543.142 1205.72 559.562 C 1206.46 565.809 1206.46 569.301 1201.11 572.865 C 1193.61 574.04 1167.93 560.813 1159.7 556.998 C 1110.12 534.011 1021.79 517.071 1055.1 442.418 z"/>
<path transform="translate(0,0)" fill="rgb(3,28,49)" d="M 674.562 613.352 C 684.702 612.339 689.567 613.272 699.362 615.053 C 695.553 617.147 690.607 619.506 686.622 621.315 C 659.739 633.512 637.296 657.684 609.296 667.02 C 603.547 666.539 589.9 666.063 586.582 660.698 C 586.651 658.436 587.404 656.957 588.881 655.204 C 612.668 626.967 639.633 618.168 674.562 613.352 z"/>
</svg>
